<?xml version="1.0" standalone="no"?>
<!DOCTYPE svg PUBLIC "-//W3C//DTD SVG 20010904//EN"
 "http://www.w3.org/TR/2001/REC-SVG-20010904/DTD/svg10.dtd">
<svg version="1.0" xmlns="http://www.w3.org/2000/svg"
 width="1280.000000pt" height="640.000000pt" viewBox="0 0 1280.000000 640.000000"
 preserveAspectRatio="xMidYMid meet">
<metadata>
Created by potrace 1.15, written by Peter Selinger 2001-2017
</metadata>
<g transform="translate(0.000000,640.000000) scale(0.100000,-0.100000)"
fill="#00bcd4" stroke="none">
<path d="M7085 5870 c-338 -11 -1048 -38 -1340 -50 -126 -5 -347 -15 -490 -20
-312 -13 -365 -21 -473 -71 -45 -22 -85 -39 -87 -39 -3 0 -34 -20 -69 -44 -35
-24 -121 -74 -190 -111 -69 -36 -128 -71 -132 -77 -13 -21 18 -29 194 -43 144
-13 191 -20 222 -36 l40 -21 0 -102 c-1 -170 -29 -719 -37 -727 -5 -5 -92 -18
-193 -29 -176 -19 -316 -30 -800 -65 -118 -8 -271 -20 -340 -25 -69 -6 -197
-15 -285 -21 -88 -5 -243 -17 -345 -25 -102 -8 -252 -19 -335 -24 -491 -30
-646 -41 -668 -49 -47 -18 -54 1 -32 91 6 23 4 28 -19 34 -26 6 -26 6 -20 84
6 75 6 78 -23 110 -25 28 -33 32 -61 25 -52 -11 -74 -49 -70 -120 2 -33 8 -68
12 -77 6 -13 2 -17 -21 -20 -26 -3 -28 -6 -28 -47 0 -24 -4 -46 -10 -47 -5 -2
-29 -8 -52 -14 -68 -17 -135 -86 -174 -178 -31 -74 -32 -84 -39 -259 -9 -225
-15 -237 -76 -167 l-41 48 -183 9 -183 8 -24 -24 c-13 -13 -36 -57 -51 -98
l-28 -74 -84 -17 c-47 -9 -93 -15 -103 -12 -9 3 -29 -3 -45 -14 -15 -10 -61
-37 -102 -58 -41 -21 -94 -57 -117 -80 -38 -36 -43 -46 -43 -84 0 -91 73 -180
159 -195 38 -6 40 -8 56 -70 15 -55 16 -79 8 -164 l-10 -100 -72 -77 c-81 -87
-136 -173 -192 -303 -66 -155 -82 -234 -83 -411 0 -158 8 -221 46 -340 49
-152 153 -315 291 -453 160 -160 414 -270 677 -293 79 -6 170 8 170 27 0 15
-41 37 -61 32 -21 -6 -27 12 -6 20 9 4 8 8 -3 17 -10 7 -42 9 -90 5 -97 -8
-236 26 -368 90 -153 74 -273 179 -375 329 -71 106 -108 184 -143 303 -26 92
-44 256 -27 266 10 6 167 -47 199 -68 15 -9 24 -29 29 -61 17 -118 74 -250
152 -357 42 -56 173 -166 236 -196 50 -24 228 -72 240 -64 19 11 -19 32 -78
42 -82 15 -123 32 -209 90 -103 70 -179 157 -239 277 -28 54 -71 208 -64 228
2 6 10 -9 17 -34 67 -247 164 -384 341 -481 82 -46 191 -85 208 -75 5 3 5 25
0 48 -11 56 -11 60 0 54 5 -3 12 -17 15 -32 10 -39 90 -197 133 -261 103 -156
297 -319 498 -420 304 -153 696 -190 989 -92 220 74 443 245 576 443 123 183
180 368 196 629 4 65 10 117 14 117 4 0 39 -15 76 -34 86 -41 127 -55 334
-107 192 -48 206 -51 365 -84 153 -31 357 -77 511 -116 l120 -30 1760 7 1760
7 36 -49 c105 -143 287 -275 480 -348 114 -42 198 -56 345 -56 177 0 230 13
520 127 6 2 38 -31 71 -74 78 -102 164 -183 287 -270 149 -105 281 -167 415
-192 36 -7 88 -18 115 -24 77 -18 403 -14 493 7 351 78 609 278 762 591 78
159 109 267 120 429 5 71 14 134 20 140 7 7 46 1 122 -18 62 -16 153 -31 201
-34 82 -4 89 -3 112 18 14 13 25 29 25 35 0 7 -20 52 -45 101 -25 48 -45 94
-45 101 0 9 16 13 53 13 78 0 120 16 175 65 98 88 150 193 214 430 29 109 29
112 25 330 -4 212 -5 226 -41 372 -70 291 -92 354 -187 545 -124 250 -253 407
-375 457 -47 20 -82 25 -175 29 -125 4 -163 -5 -249 -62 -31 -21 -184 -55
-196 -44 -2 3 23 85 56 184 33 98 59 188 58 199 -4 28 -34 31 -488 49 -217 9
-495 24 -618 32 -224 16 -252 14 -252 -18 0 -5 -20 -37 -43 -71 -86 -122 -123
-194 -167 -327 l-46 -135 -50 1 c-66 2 -254 49 -331 84 -104 47 -96 -9 -91
693 6 726 5 736 -84 850 -38 48 -139 120 -204 145 -84 34 -290 71 -477 87 -97
8 -187 17 -200 20 -137 32 -1025 52 -1552 35z m1018 -36 c43 -4 77 -10 77 -14
0 -4 -69 -10 -152 -14 -306 -13 -1386 -50 -1793 -61 -121 -3 -266 -13 -323
-22 -102 -16 -103 -16 -97 -41 l6 -25 -118 7 c-65 3 -279 9 -476 12 -197 4
-372 10 -390 14 l-32 7 37 16 c63 27 231 46 498 57 140 6 399 17 575 25 176 8
475 19 665 25 190 6 372 12 405 13 132 7 1047 7 1118 1z m807 -75 c184 -23
363 -65 440 -104 28 -14 68 -44 90 -66 69 -71 128 -256 86 -272 -15 -6 -21
-179 -32 -822 -3 -192 -7 -360 -10 -372 -3 -14 -12 -23 -23 -23 -11 0 -21 9
-25 23 -9 34 -6 232 4 317 5 41 14 201 20 355 5 154 14 318 21 365 14 112 9
205 -11 205 -19 0 -24 -75 -38 -555 -6 -190 -14 -354 -18 -363 -3 -10 -12 -16
-18 -14 -15 5 -12 294 4 440 7 62 14 215 14 342 1 198 -1 230 -14 230 -13 0
-16 -38 -21 -255 -4 -140 -14 -313 -23 -385 -9 -71 -16 -180 -16 -242 0 -61
-4 -114 -10 -118 -12 -7 -4 591 11 847 6 104 9 194 6 202 -3 9 -14 12 -25 9
-14 -3 -21 2 -25 17 -3 12 -11 20 -19 18 -10 -4 -15 -52 -21 -199 -4 -107 -13
-286 -21 -399 l-14 -205 0 413 c0 228 -3 417 -7 420 -4 4 -13 -2 -21 -12 -12
-16 -14 -100 -15 -485 0 -256 -4 -475 -8 -486 -7 -18 -9 -18 -23 10 -13 25
-14 55 -7 195 4 91 8 260 9 375 0 116 5 239 10 275 11 78 3 140 -19 147 -9 2
-24 9 -35 15 -11 6 -22 6 -28 0 -5 -5 -13 -128 -18 -272 -6 -145 -14 -268 -19
-273 -35 -35 -40 90 -16 367 10 115 12 173 5 180 -23 23 -31 -19 -42 -213 -12
-203 -17 -224 -45 -170 -10 18 -11 69 -6 207 5 165 5 182 -10 182 -15 0 -17
-14 -17 -104 0 -132 -9 -196 -26 -196 -11 0 -14 31 -14 155 0 154 0 155 -22
155 -13 0 -33 3 -45 6 -18 5 -23 1 -32 -27 -6 -22 -10 -27 -10 -13 -1 11 -7
29 -15 40 -14 18 -15 18 -25 -9 -6 -16 -11 -51 -11 -78 0 -43 -3 -50 -17 -47
-15 3 -19 17 -23 78 -4 61 -8 75 -23 78 -15 3 -17 -4 -16 -47 1 -28 0 -54 -4
-57 -14 -14 -27 10 -27 50 0 49 -7 61 -27 45 -8 -7 -29 -9 -52 -5 -45 7 -81
-15 -101 -64 -7 -16 -18 -30 -26 -30 -7 0 -15 -8 -18 -17 -3 -10 -10 -268 -16
-573 -11 -622 -19 -822 -31 -814 -11 6 -12 759 -2 1158 l6 278 29 10 c51 18
28 38 -45 38 -69 0 -29 19 56 26 42 4 77 10 77 14 0 14 -188 20 -930 31 -404
6 -780 14 -835 18 l-100 7 105 7 c102 7 716 31 1170 46 124 4 374 8 555 9 280
2 355 -1 495 -19z m-2157 -106 c-13 -2 -35 -2 -50 0 -16 2 -5 4 22 4 28 0 40
-2 28 -4z m520 -10 c-7 -2 -19 -2 -25 0 -7 3 -2 5 12 5 14 0 19 -2 13 -5z
m-2342 -13 c24 13 30 -9 23 -78 -9 -79 -23 -100 -24 -37 -1 28 -5 59 -10 70
-7 19 -8 18 -14 -5 -3 -14 -7 -47 -9 -75 -2 -27 -4 -7 -5 45 -2 71 1 91 10 82
7 -7 17 -8 29 -2z m2646 4 c-3 -3 -12 -4 -19 -1 -8 3 -5 6 6 6 11 1 17 -2 13
-5z m106 -1 c-13 -2 -33 -2 -45 0 -13 2 -3 4 22 4 25 0 35 -2 23 -4z m-2963
-70 c0 -74 -7 -113 -21 -113 -10 0 -12 140 -3 164 13 35 24 12 24 -51z m55
-121 c-14 -14 -20 17 -17 90 4 115 16 120 20 9 1 -51 0 -96 -3 -99z m75 151
c0 -65 -12 -143 -21 -137 -10 6 -12 157 -2 167 15 16 23 5 23 -30z m158 -51
c-2 -54 1 -76 10 -79 9 -4 12 17 12 81 0 69 3 86 15 86 11 0 15 -16 17 -67 3
-79 22 -91 26 -18 2 28 8 55 14 60 8 7 9 5 4 -8 -14 -42 22 -93 38 -52 3 8 15
15 26 15 12 0 20 7 20 16 0 12 6 15 25 10 21 -5 27 -2 35 19 l10 25 227 -1
c126 0 236 -4 246 -8 18 -7 -54 -55 -305 -203 l-67 -40 -158 11 c-87 7 -173
14 -190 17 l-33 5 0 103 c0 56 3 106 6 109 18 17 26 -12 22 -81z m952 47 c9
-36 -7 -787 -20 -919 -6 -63 -8 -154 -4 -202 8 -101 -2 -202 -18 -192 -12 8
-4 1277 8 1322 8 28 26 24 34 -9z m191 4 c7 -18 8 -72 5 -143 -3 -63 -11 -324
-17 -580 -5 -256 -14 -476 -18 -490 -5 -14 -4 -55 1 -93 5 -39 5 -74 0 -83
-18 -32 -22 168 -16 775 3 339 7 622 10 629 6 21 24 13 35 -15z m169 -29 c0
-24 -4 -34 -12 -32 -15 5 -22 42 -14 64 10 25 26 5 26 -32z m64 30 c11 -29 6
-64 -8 -64 -16 0 -31 53 -21 70 9 15 22 12 29 -6z m114 -35 c-2 -19 -7 -33
-13 -32 -14 3 -18 29 -10 60 9 37 27 14 23 -28z m77 30 c9 -28 -3 -71 -18 -66
-13 4 -22 51 -13 73 8 20 24 17 31 -7z m-685 -119 c0 -100 -10 -144 -27 -126
-10 10 -10 215 0 241 16 39 27 -8 27 -115z m330 126 c0 -3 -4 -8 -10 -11 -5
-3 -10 -1 -10 4 0 6 5 11 10 11 6 0 10 -2 10 -4z m410 -31 c0 -19 -4 -35 -10
-35 -5 0 -10 16 -10 35 0 19 5 35 10 35 6 0 10 -16 10 -35z m120 -11 c0 -24
-5 -34 -15 -34 -10 0 -15 10 -15 33 0 19 3 37 6 40 13 13 24 -5 24 -39z m66
21 c7 -28 0 -55 -16 -55 -5 0 -10 18 -10 40 0 44 16 54 26 15z m62 -12 c-3
-42 -21 -51 -26 -15 -4 29 4 52 18 52 7 0 10 -15 8 -37z m62 -3 c0 -33 -17
-49 -26 -26 -8 22 4 68 16 61 6 -3 10 -19 10 -35z m66 16 c8 -34 1 -61 -16
-61 -8 0 -16 8 -18 18 -5 25 6 67 18 67 5 0 12 -11 16 -24z m240 -3 c7 -26 -3
-53 -20 -56 -12 -3 -29 50 -22 68 9 24 35 17 42 -12z m242 -29 c-2 -27 -8 -39
-18 -39 -19 0 -26 61 -9 81 18 22 31 2 27 -42z m1063 5 c11 -22 33 -46 52 -55
41 -22 118 -76 113 -81 -2 -2 -34 13 -70 33 -59 32 -73 36 -113 30 -57 -8 -73
4 -73 55 0 27 6 42 21 53 29 20 46 11 70 -35z m-1441 -1 c0 -9 -4 -20 -10 -23
-6 -4 -10 9 -10 32 0 28 3 34 10 23 5 -8 10 -23 10 -32z m58 13 c2 -12 1 -30
-3 -39 -5 -14 -7 -14 -15 -2 -15 23 -12 72 3 68 6 -3 13 -15 15 -27z m132 -5
c0 -38 -16 -57 -26 -32 -8 21 3 66 16 66 6 0 10 -15 10 -34z m118 -19 c-2 -12
-7 -22 -13 -22 -12 0 -19 41 -10 63 6 16 7 16 16 -1 6 -10 9 -28 7 -40z m382
-3 c0 -13 -5 -26 -12 -30 -14 -9 -38 23 -32 42 16 52 14 50 30 30 8 -11 14
-30 14 -42z m58 5 c-2 -19 -7 -33 -13 -32 -12 3 -19 49 -10 71 10 26 27 -2 23
-39z m72 6 c0 -24 -22 -49 -33 -38 -4 3 -7 21 -7 38 0 17 3 35 7 38 11 11 33
-14 33 -38z m-3289 -27 l-9 -33 -1 41 c-1 22 2 44 7 48 12 12 14 -19 3 -56z
m2708 25 c0 -34 -1 -36 -11 -16 -6 12 -8 29 -5 37 11 27 17 18 16 -21z m206 2
c0 -16 -6 -30 -12 -32 -9 -3 -13 7 -13 32 0 25 4 35 13 33 6 -3 12 -17 12 -33z
m65 0 c0 -24 -5 -35 -15 -35 -10 0 -15 11 -15 35 0 24 5 35 15 35 10 0 15 -11
15 -35z m478 -2 c-2 -26 -8 -38 -18 -38 -10 0 -16 12 -18 38 -3 32 0 37 18 37
18 0 21 -5 18 -37z m57 -137 c-10 -242 -23 -265 -24 -44 -1 188 3 223 21 212
7 -5 8 -61 3 -168z m128 -550 c-1 -395 -4 -720 -7 -723 -3 -3 -12 -3 -21 1
-14 5 -16 74 -13 713 2 390 7 714 11 721 30 46 32 1 30 -712z m547 623 c0 -76
-3 -100 -12 -97 -7 3 -15 15 -16 28 -6 39 9 170 19 170 5 0 9 -45 9 -101z
m-1163 44 c-3 -10 -5 -4 -5 12 0 17 2 24 5 18 2 -7 2 -21 0 -30z m350 0 c-3
-10 -5 -4 -5 12 0 17 2 24 5 18 2 -7 2 -21 0 -30z m196 24 c3 -8 1 -20 -4 -28
-6 -10 -9 -7 -9 14 0 29 5 35 13 14z m-2469 -176 c-5 -13 -8 -11 -16 9 -9 25
-2 146 11 165 8 13 14 -154 5 -174z m69 -31 c-20 -22 -31 111 -16 181 6 26 9
9 14 -71 3 -58 4 -107 2 -110z m2157 185 c0 -14 -4 -25 -10 -25 -11 0 -14 33
-3 43 11 11 13 8 13 -18z m-3380 -2 c0 -10 -5 -25 -10 -33 -7 -11 -10 -7 -10
18 0 17 5 32 10 32 6 0 10 -8 10 -17z m4167 -45 c-2 -13 -4 -3 -4 22 0 25 2
35 4 23 2 -13 2 -33 0 -45z m368 -213 c-4 -110 -9 -245 -11 -300 -2 -55 -4
-118 -4 -140 l-1 -40 -14 50 c-11 40 -12 60 -3 97 9 36 9 53 0 73 -7 14 -12
58 -12 98 0 84 17 331 27 397 l7 45 9 -40 c5 -23 6 -127 2 -240z m-4658 213
c-3 -8 -6 -5 -6 6 -1 11 2 17 5 13 3 -3 4 -12 1 -19z m1213 -48 c0 -40 -4 -70
-10 -70 -11 0 -14 98 -4 124 11 29 14 17 14 -54z m390 51 c0 -11 -4 -23 -10
-26 -6 -4 -10 5 -10 19 0 14 5 26 10 26 6 0 10 -9 10 -19z m574 -12 c3 -3 2
-118 -4 -255 -5 -137 -14 -377 -20 -533 -6 -155 -14 -289 -16 -296 -9 -22 -43
-25 -227 -18 -122 4 -180 10 -188 19 -7 8 -7 125 1 376 5 199 10 431 10 515 0
83 4 163 9 176 l9 24 210 -1 c116 0 213 -4 216 -7z m115 2 c11 -7 11 -39 2
-192 -6 -101 -11 -245 -11 -320 0 -206 -9 -287 -32 -295 -18 -5 -18 -7 2 -40
24 -37 19 -58 -11 -49 -26 8 -25 -16 1 -40 27 -24 25 -35 -5 -35 -14 0 -25 -5
-25 -11 0 -6 11 -20 25 -31 34 -27 34 -74 1 -90 -14 -6 -32 -8 -40 -5 -21 8
-21 146 -1 622 8 193 15 380 15 417 0 61 2 67 23 71 37 7 41 7 56 -2z m109
-398 c2 -315 0 -393 -10 -393 -7 0 -28 13 -46 28 l-32 27 9 350 c5 193 12 358
16 368 5 12 16 17 34 15 l26 -3 3 -392z m119 5 c1 -254 -1 -388 -8 -388 -24 0
-67 31 -73 52 -11 42 -7 688 5 709 8 15 19 19 42 17 l32 -3 2 -387z m105 352
c4 -19 4 -176 1 -347 -7 -339 -7 -341 -58 -281 l-27 31 4 302 c3 321 6 340 52
333 14 -2 22 -13 28 -38z m99 -100 c12 -247 10 -628 -3 -636 -6 -4 -24 7 -41
26 l-30 34 7 349 c4 193 9 354 12 359 3 5 16 8 27 6 21 -3 22 -10 28 -138z
m97 128 c9 -9 12 -97 12 -335 0 -346 0 -346 -49 -305 -20 16 -20 27 -23 322
-2 168 1 311 5 318 10 15 39 16 55 0z m124 -43 c4 -27 4 -122 1 -210 -4 -131
-8 -162 -21 -173 -14 -10 -14 -16 -4 -32 6 -11 12 -49 12 -85 0 -73 -16 -86
-47 -38 -16 24 -18 58 -21 290 -3 286 0 306 46 301 24 -3 28 -8 34 -53z m112
7 c9 -56 7 -470 -2 -476 -5 -3 -26 6 -47 21 l-38 25 7 217 c4 119 9 224 12
233 5 17 30 27 50 21 6 -3 14 -21 18 -41z m89 10 c8 -39 -5 -412 -14 -412 -4
0 -15 7 -23 16 -14 13 -16 47 -16 219 0 154 3 204 13 208 21 7 35 -3 40 -31z
m107 -194 c4 -112 4 -209 2 -215 -2 -7 -12 -13 -22 -13 -29 0 -33 -17 -8 -34
12 -9 18 -16 12 -16 -6 0 -24 12 -39 26 l-28 26 6 216 c5 191 8 218 23 229 15
11 21 11 33 -2 12 -11 16 -58 21 -217z m104 184 c10 -37 -4 -366 -17 -378 -12
-12 -41 10 -48 37 -9 33 -11 364 -2 373 4 4 19 6 32 4 19 -2 28 -11 35 -36z
m101 -204 c0 -130 -4 -240 -8 -244 -5 -5 -20 -2 -35 7 l-27 15 3 220 c1 120 5
225 7 232 3 8 16 12 32 10 l28 -3 0 -237z m104 220 c9 -27 -15 -1006 -27
-1058 -6 -28 -13 -35 -37 -40 -17 -3 -151 -3 -300 1 -148 4 -382 8 -520 9
-315 3 -370 8 -370 35 0 15 6 19 23 18 24 -3 23 6 -6 40 -28 31 -3 31 42 -1
54 -39 75 -41 69 -8 -7 37 9 37 56 0 43 -33 71 -43 71 -25 0 6 -4 13 -10 16
-13 8 -13 25 1 25 6 0 22 -9 36 -20 14 -11 32 -20 39 -20 8 0 14 9 14 20 0 27
16 25 52 -5 37 -31 51 -31 68 0 l13 25 35 -21 c36 -20 51 -15 52 19 0 18 11
15 53 -13 40 -28 57 -26 57 6 0 27 17 24 57 -11 18 -16 40 -30 48 -30 12 0 12
5 0 33 -22 52 -5 67 39 33 20 -15 36 -34 36 -42 0 -8 10 -14 26 -14 14 0 34
-5 45 -10 29 -16 23 2 -11 35 -28 26 -41 65 -22 65 18 0 50 -32 56 -56 6 -21
11 -25 31 -20 16 4 36 -1 57 -14 43 -26 51 -25 44 4 -9 35 11 42 45 17 36 -27
49 -27 49 2 0 13 2 26 5 28 2 3 7 207 9 455 3 247 8 470 12 497 6 41 10 47 31
47 15 0 26 -8 32 -22z m60 -328 c-6 -184 -9 -474 -7 -645 2 -197 -1 -312 -7
-315 -5 -3 -16 8 -24 24 -11 24 -12 76 -2 325 6 163 14 431 17 596 5 315 9
374 24 359 6 -6 5 -145 -1 -344z m336 -250 c-5 -555 -10 -697 -27 -721 -6 -9
-7 175 -4 546 7 600 13 781 27 730 5 -16 7 -266 4 -555z m75 -52 c-1 -326 -5
-613 -9 -638 -4 -30 -11 -45 -21 -45 -13 0 -15 40 -15 295 0 325 13 967 21
989 3 11 8 11 16 3 8 -8 10 -179 8 -604z m76 556 c8 -72 0 -1231 -9 -1240 -4
-4 -13 -2 -20 5 -9 9 -12 154 -12 634 0 342 3 630 7 640 14 32 27 17 34 -39z
m-364 -556 c3 -699 3 -666 -6 -675 -3 -4 -12 -1 -19 6 -14 14 -16 823 -2 1104
15 315 25 151 27 -435z m433 -55 c-1 -474 -4 -628 -13 -631 -9 -3 -12 145 -12
631 0 348 3 637 7 640 4 4 9 3 13 -3 3 -5 5 -292 5 -637z m-3315 588 c321 -24
484 -39 504 -47 10 -4 17 -29 22 -72 9 -88 -4 -724 -15 -735 -6 -6 -48 16
-102 53 -105 70 -176 107 -269 141 -56 20 -83 23 -195 23 -111 0 -144 -4 -230
-28 -55 -16 -113 -31 -129 -33 l-29 -6 7 344 c3 189 9 355 13 368 6 23 9 23
77 18 39 -3 195 -15 346 -26z m732 -548 c-4 -314 -10 -575 -14 -579 -22 -21
-22 -13 -9 601 9 438 15 564 26 553 2 -2 0 -260 -3 -575z m-1245 545 c-3 -8
-6 -5 -6 6 -1 11 2 17 5 13 3 -3 4 -12 1 -19z m53 -145 c-3 -89 -10 -166 -14
-170 -5 -4 -5 60 -2 142 7 131 14 203 20 193 1 -2 -1 -76 -4 -165z m3846 142
c10 -42 -2 -1209 -13 -1212 -20 -7 -33 797 -17 1099 6 132 16 168 30 113z
m224 -202 c35 -71 62 -114 75 -118 11 -4 28 -14 37 -22 15 -14 16 -18 3 -43
-13 -25 -13 -39 1 -112 40 -207 112 -391 170 -437 26 -20 30 -31 13 -31 -19 0
-119 113 -119 136 0 11 -14 48 -30 80 -17 33 -37 97 -46 144 -9 47 -20 109
-26 137 -7 42 -15 55 -36 66 -24 11 -27 17 -24 60 3 38 -2 58 -28 104 -18 32
-42 76 -53 98 -11 22 -30 54 -42 70 -55 74 -56 89 -4 35 38 -40 70 -89 109
-167z m-140 -445 c0 -503 -2 -569 -15 -575 -9 -3 -18 -3 -21 0 -4 4 -8 1024
-5 1151 1 28 1 29 21 11 20 -18 20 -31 20 -587z m-3993 545 c-3 -10 -5 -2 -5
17 0 19 2 27 5 18 2 -10 2 -26 0 -35z m4493 -208 c-5 -71 -9 -221 -10 -332 0
-147 -3 -203 -12 -203 -8 0 -10 83 -4 335 3 184 9 349 13 367 l7 33 7 -35 c4
-19 4 -93 -1 -165z m-430 110 c20 -24 24 -315 10 -668 -7 -177 -17 -330 -22
-340 -25 -48 -28 12 -24 436 3 243 5 475 6 515 0 72 7 85 30 57z m-4065 -316
c0 -224 -3 -289 -12 -289 -15 0 -16 53 -6 373 3 119 9 214 12 211 3 -3 6 -136
6 -295z m3332 269 c-3 -7 -5 -2 -5 12 0 14 2 19 5 13 2 -7 2 -19 0 -25z m-339
-94 c22 -15 30 -44 12 -44 -13 0 -50 37 -50 50 0 14 12 12 38 -6z m338 -131
c-2 -76 -4 -209 -5 -296 -1 -115 -4 -156 -12 -151 -17 10 -1 584 16 584 2 0 2
-62 1 -137z m-536 112 c10 -12 10 -15 -3 -15 -8 0 -20 7 -27 15 -10 12 -10 15
3 15 8 0 20 -7 27 -15z m-113 -51 c26 -20 33 -32 33 -61 0 -33 -2 -35 -26 -29
-27 7 -26 -1 2 -34 7 -8 13 -26 13 -40 0 -14 3 -42 7 -62 8 -48 -13 -59 -56
-28 -26 19 -31 28 -28 59 2 29 8 37 26 39 l23 3 -26 30 c-25 31 -32 77 -19
127 8 28 10 28 51 -4z m413 6 c25 -25 17 -54 -11 -40 -22 12 -41 44 -32 54 11
10 22 7 43 -14z m-203 -12 c23 -21 31 -48 14 -48 -16 0 -61 41 -61 56 0 20 20
17 47 -8z m-102 -8 c21 -23 12 -39 -13 -24 -19 12 -29 44 -14 44 5 0 17 -9 27
-20z m210 0 c10 -11 15 -23 12 -26 -8 -8 -57 23 -57 36 0 17 26 11 45 -10z
m-2948 -12 c-3 -8 -6 -5 -6 6 -1 11 2 17 5 13 3 -3 4 -12 1 -19z m4089 -342
c-3 -182 -9 -356 -13 -386 l-6 -55 -13 55 c-10 43 -10 127 -3 375 5 175 12
327 15 337 3 10 10 15 16 12 8 -5 9 -104 4 -338z m-1048 298 c24 -16 30 -44 9
-44 -20 0 -57 30 -57 46 0 18 20 18 48 -2z m-299 -20 c23 -30 24 -33 12 -53
-12 -19 -49 3 -57 34 -12 48 14 59 45 19z m95 5 c25 -20 35 -49 17 -49 -12 0
-61 47 -61 60 0 16 15 12 44 -11z m110 -1 c28 -40 19 -54 -14 -23 -16 16 -30
32 -30 37 0 17 29 7 44 -14z m-421 -5 c22 -25 27 -96 7 -100 -26 -6 -60 34
-60 71 0 49 23 62 53 29z m337 -92 c5 -10 5 -23 0 -32 -8 -12 -13 -12 -37 3
-29 17 -39 39 -29 64 5 13 9 12 31 -2 14 -9 30 -24 35 -33z m180 29 c23 -23
26 -50 7 -50 -18 0 -57 38 -57 55 0 21 27 18 50 -5z m-622 -6 c24 -16 30 -44
9 -44 -20 0 -57 30 -57 46 0 18 20 18 48 -2z m522 -4 c20 -20 19 -40 0 -40
-14 0 -40 30 -40 46 0 20 17 17 40 -6z m-736 -21 c30 -24 35 -59 8 -59 -30 0
-34 -12 -10 -37 28 -30 3 -31 -29 -1 -23 21 -30 67 -17 102 8 21 16 20 48 -5z
m1951 -224 c8 -265 1 -405 -21 -405 -24 0 -27 46 -20 284 7 261 15 368 26 361
4 -3 11 -110 15 -240z m-1415 220 c7 -8 9 -22 6 -31 -6 -15 -9 -14 -31 6 -14
13 -25 27 -25 32 0 14 37 9 50 -7z m-219 -44 c17 -14 21 -23 13 -31 -8 -8 -18
-5 -37 10 -15 12 -27 26 -27 31 0 15 26 10 51 -10z m511 2 c18 -16 25 -53 10
-53 -14 0 -52 40 -52 55 0 20 19 19 42 -2z m-614 -9 c24 -17 31 -64 9 -64 -21
0 -60 47 -54 64 8 20 17 20 45 0z m521 -10 c24 -31 18 -59 -10 -44 -23 13 -42
47 -34 60 10 16 22 12 44 -16z m1433 -112 c2 -68 0 -92 -9 -92 -15 0 -18 143
-6 201 9 41 11 30 15 -109z m-2067 110 c29 -24 38 -51 19 -59 -19 -7 -64 34
-64 59 0 22 19 23 45 0z m432 -4 c24 -22 29 -53 14 -77 -14 -22 -58 11 -66 48
-11 53 12 66 52 29z m100 0 c25 -23 31 -48 11 -48 -16 0 -58 41 -58 57 0 20
21 16 47 -9z m-2368 -4 c2 -2 -12 -4 -33 -4 -22 0 -35 4 -31 10 5 9 52 4 64
-6z m1529 -38 c3 -14 -1 -17 -16 -12 -32 10 -35 -10 -6 -33 15 -12 25 -23 22
-26 -2 -2 -21 9 -41 26 -35 29 -50 73 -30 92 10 11 68 -27 71 -47z m96 33 c29
-23 34 -49 9 -49 -23 0 -53 29 -53 52 0 23 11 23 44 -3z m-1500 -19 c15 -15
-14 -12 -49 6 l-30 14 35 -5 c19 -3 39 -10 44 -15z m2030 -21 c25 -20 35 -49
17 -49 -16 0 -71 51 -65 61 8 14 19 11 48 -12z m-2063 -14 c81 -20 249 -102
312 -151 26 -20 68 -64 93 -97 41 -55 45 -64 42 -111 -2 -40 -7 -52 -22 -54
-10 -2 -16 0 -12 6 3 5 -6 20 -19 32 -30 28 -32 40 -5 33 51 -13 -8 77 -105
160 -110 96 -365 186 -531 188 -52 1 -63 3 -44 10 37 12 217 3 291 -16z m1964
0 c28 -27 31 -43 11 -51 -23 -9 -66 25 -66 52 0 31 24 31 55 -1z m500 7 c26
-22 36 -45 25 -62 -11 -17 -34 0 -55 41 -21 40 -5 51 30 21z m-2905 -10 c0
-11 -39 -46 -67 -61 -35 -18 -83 -14 -83 7 0 28 13 38 65 49 66 14 85 15 85 5z
m2297 -14 c42 -39 22 -65 -25 -32 -23 16 -30 54 -10 54 6 0 22 -10 35 -22z
m411 5 c29 -25 38 -61 17 -69 -31 -12 -82 56 -58 79 10 11 19 8 41 -10z m112
-10 c25 -31 13 -51 -19 -31 -21 13 -30 58 -12 58 5 0 19 -12 31 -27z m-855 -7
c34 -27 29 -44 -7 -25 -23 12 -38 28 -38 42 0 13 14 7 45 -17z m110 8 c26 -17
39 -41 26 -49 -12 -7 -61 34 -61 51 0 18 5 18 35 -2z m106 -5 c30 -21 38 -39
17 -39 -14 0 -58 40 -58 52 0 13 10 10 41 -13z m-5551 -76 c0 -59 -12 -67 -35
-23 -18 35 -19 64 -4 92 11 21 12 21 25 3 8 -10 14 -43 14 -72z m5983 39 c20
-18 23 -42 4 -42 -19 0 -60 47 -52 59 7 12 19 8 48 -17z m-764 -8 c29 -24 42
-64 22 -64 -19 0 -71 52 -71 71 0 26 13 24 49 -7z m652 5 c31 -22 41 -69 15
-69 -17 0 -66 56 -66 76 0 20 17 18 51 -7z m-2328 4 c-7 -2 -21 -2 -30 0 -10
3 -4 5 12 5 17 0 24 -2 18 -5z m321 -30 c110 -41 276 -160 276 -198 0 -3 -30
18 -67 48 -92 73 -125 91 -233 132 -101 37 -140 62 -80 50 19 -3 66 -18 104
-32z m3596 -27 c0 -36 -4 -68 -10 -71 -6 -4 -10 20 -10 64 0 41 4 71 10 71 6
0 10 -28 10 -64z m-1678 20 c11 -16 10 -36 -1 -36 -19 0 -64 47 -57 58 8 13
44 -1 58 -22z m495 12 c22 -20 32 -58 15 -58 -20 0 -52 34 -52 56 0 30 7 30
37 2z m-927 -22 c10 -13 10 -16 -2 -16 -20 0 -59 30 -53 41 7 11 35 -2 55 -25z
m91 13 c29 -21 39 -49 17 -49 -16 0 -58 41 -58 57 0 18 7 16 41 -8z m116 -5
c33 -25 44 -54 20 -54 -18 0 -67 48 -67 65 0 21 8 19 47 -11z m632 0 c37 -47
20 -71 -27 -38 -25 17 -31 64 -8 64 8 0 24 -12 35 -26z m-518 -3 c17 -14 21
-23 13 -31 -8 -8 -18 -5 -37 10 -15 12 -27 26 -27 31 0 15 26 10 51 -10z
m-2021 -21 c12 -8 12 -10 -5 -10 -11 0 -27 5 -35 10 -12 8 -12 10 5 10 11 0
27 -5 35 -10z m126 -40 c56 -20 94 -41 94 -52 0 -7 -36 5 -137 47 -24 9 -43
22 -43 27 0 6 8 7 18 3 9 -4 40 -15 68 -25z m5794 5 c429 -21 450 -23 450 -42
0 -26 -290 -899 -305 -920 -14 -17 -14 -17 -15 1 0 34 180 602 241 760 42 107
47 141 25 149 -28 11 -133 17 -451 27 -394 13 -675 29 -712 41 -38 12 360 4
767 -16z m-5649 -17 c22 -12 39 -25 39 -29 0 -6 -80 33 -99 48 -17 13 29 -1
60 -19z m-1136 -29 c98 -50 105 -56 105 -83 0 -13 13 -30 35 -44 19 -12 35
-27 35 -33 0 -5 -19 3 -43 20 -24 16 -52 31 -62 33 -26 4 -33 -30 -8 -39 55
-20 193 -123 193 -145 0 -19 -31 -5 -81 36 -30 24 -91 69 -137 100 -82 55 -85
56 -135 50 -29 -4 -55 -11 -58 -17 -4 -5 -24 -6 -48 -2 -38 6 -41 5 -41 -15 0
-13 8 -24 20 -27 11 -3 20 -10 20 -15 0 -9 -19 1 -75 39 -25 17 -35 17 -35 -2
0 -8 25 -33 56 -56 30 -22 53 -43 50 -46 -6 -6 -81 36 -140 79 -48 35 -66 36
-66 3 0 -31 -9 -31 -56 -3 -35 21 -37 21 -50 3 -13 -18 -15 -18 -54 0 -29 13
-43 15 -53 7 -7 -6 -24 -8 -37 -5 -16 4 -27 1 -37 -13 -13 -17 -15 -17 -42 -1
-35 21 -61 22 -61 3 0 -11 -16 -13 -72 -11 -40 2 -81 6 -90 10 -12 5 -20 2
-24 -10 -5 -13 -14 -15 -42 -10 -23 4 -37 2 -43 -6 -6 -10 -16 -10 -47 -1 -54
16 -62 15 -62 -8 0 -24 2 -24 -53 -1 -46 20 -152 23 -191 6 -11 -5 -36 -4 -57
2 -29 8 -41 7 -52 -4 -10 -11 -20 -11 -41 -3 -39 14 -74 12 -84 -5 -7 -13 -14
-13 -41 -4 -26 9 -38 9 -53 0 -16 -10 -30 -9 -69 4 -46 16 -51 16 -62 1 -11
-14 -16 -13 -56 5 -45 20 -76 19 -69 -3 2 -6 22 -16 44 -23 21 -6 55 -21 74
-33 66 -41 -7 -26 -110 23 -102 48 -116 52 -123 33 -3 -10 -11 -10 -39 0 -45
16 -58 15 -58 -3 0 -8 21 -23 47 -35 25 -11 43 -23 40 -27 -4 -3 -48 13 -97
36 -73 35 -93 41 -105 31 -9 -7 -26 -9 -46 -5 -22 5 -34 3 -40 -6 -6 -11 -15
-10 -44 4 -20 9 -47 17 -60 17 -25 0 -65 31 -65 50 0 6 6 10 12 10 7 0 85 7
173 15 319 29 403 36 570 46 94 5 325 21 515 34 190 14 478 34 640 46 162 11
336 24 385 28 191 17 212 15 300 -30z m1005 -19 c12 -6 20 -14 17 -16 -7 -7
-167 58 -167 67 0 9 108 -28 150 -51z m3741 -62 c9 -137 2 -208 -21 -208 -26
0 -32 49 -25 187 8 136 11 151 27 135 6 -6 15 -58 19 -114z m-4298 51 c232
-116 257 -129 257 -140 0 -19 -57 -2 -115 36 -31 19 -110 62 -175 95 -66 33
-120 63 -120 66 0 12 53 -8 153 -57z m-253 -18 c142 -87 212 -135 202 -139
-16 -5 -89 35 -162 88 -36 26 -86 59 -112 75 -27 15 -51 31 -54 36 -8 13 61
-20 126 -60z m1264 63 c17 -6 22 -24 8 -24 -5 0 -17 7 -28 15 -19 15 -8 20 20
9z m3542 -35 c17 -19 17 -23 3 -47 -19 -34 -57 -54 -80 -42 -28 15 -30 38 -6
74 25 41 55 46 83 15z m-7765 1 c32 0 39 -4 39 -19 0 -51 -33 -65 -97 -40 -31
12 -43 26 -43 53 0 15 5 17 31 12 17 -3 49 -6 70 -6z m3134 -72 c193 -123 212
-138 177 -138 -18 0 -290 175 -322 207 -27 27 58 -13 145 -69z m550 51 c13
-13 -19 -11 -50 3 -14 6 -25 15 -25 19 0 9 60 -9 75 -22z m-163 -33 c142 -65
168 -78 168 -87 0 -21 -41 -5 -140 51 -143 83 -150 93 -28 36z m3918 -73 c0
-111 -12 -162 -23 -103 -9 40 3 210 14 210 5 0 9 -48 9 -107z m140 -35 c0 -85
-3 -108 -14 -108 -16 0 -32 169 -21 221 7 31 8 32 21 14 10 -13 14 -51 14
-127z m-4132 89 c61 -29 84 -47 62 -47 -14 0 -170 79 -170 86 0 9 40 -6 108
-39z m243 3 c10 -6 19 -18 19 -26 0 -12 -10 -10 -50 12 -27 15 -47 31 -44 35
5 8 37 -1 75 -21z m279 11 c27 -51 -2 -141 -45 -141 -25 0 -25 2 -25 80 l0 80
30 0 c19 0 33 -7 40 -19z m5860 -17 c0 -21 -3 -24 -21 -19 -19 6 -21 4 -15
-16 16 -58 18 -79 8 -79 -7 0 -19 14 -28 31 -21 41 -36 25 -24 -26 21 -88 4
-110 -27 -36 -25 57 -26 19 -3 -60 12 -39 24 -78 27 -85 3 -8 1 -14 -5 -14 -5
0 -20 25 -33 55 -33 75 -52 73 -29 -3 6 -17 14 -45 19 -62 17 -52 -8 -34 -36
28 -35 76 -43 43 -10 -41 31 -79 40 -117 28 -117 -15 0 -61 65 -70 96 -11 44
-34 44 -26 0 6 -28 4 -37 -9 -42 -23 -9 -20 -23 20 -120 19 -47 33 -89 30 -92
-3 -3 -7 -3 -9 -1 -2 2 -18 23 -35 46 -18 23 -39 57 -47 77 -14 33 -13 40 15
118 17 46 42 108 56 138 14 30 31 66 38 80 17 39 85 122 119 147 42 31 67 30
67 -3z m-6060 6 c0 -5 -4 -10 -9 -10 -6 0 -13 5 -16 10 -3 6 1 10 9 10 9 0 16
-4 16 -10z m85 -6 c22 -23 17 -88 -8 -92 -10 -2 -24 2 -32 8 -18 15 -20 86 -2
93 20 9 25 8 42 -9z m504 -37 c0 -23 -4 -51 -8 -62 -7 -17 -9 -14 -13 15 -7
43 2 101 13 94 5 -3 9 -24 8 -47z m261 -18 c0 -60 -14 -80 -23 -33 -6 36 3
105 14 98 5 -3 9 -32 9 -65z m254 55 c9 -25 7 -107 -4 -124 -9 -13 -11 -13
-20 0 -17 27 -9 140 10 140 4 0 11 -7 14 -16z m186 -58 c0 -55 -11 -83 -29
-72 -12 8 -16 128 -4 139 16 16 33 -19 33 -67z m-513 12 c-2 -13 -4 -5 -4 17
-1 22 1 32 4 23 2 -10 2 -28 0 -40z m263 -13 c0 -50 -11 -77 -24 -57 -8 14 6
122 15 116 5 -3 9 -29 9 -59z m179 -33 c2 -65 -23 -49 -27 18 -4 65 8 100 18
55 4 -16 8 -49 9 -73z m129 26 c-4 -86 -22 -94 -26 -12 -3 62 1 84 18 84 7 0
10 -26 8 -72z m76 20 c10 -91 9 -100 -16 -96 -21 3 -23 10 -26 62 -3 67 1 86
21 86 10 0 16 -17 21 -52z m66 -24 c0 -61 -11 -83 -24 -48 -8 21 -8 109 0 117
16 15 24 -9 24 -69z m70 11 c0 -92 -23 -113 -35 -32 -7 45 9 102 25 92 5 -3
10 -30 10 -60z m58 -15 c-2 -40 -8 -65 -15 -68 -10 -3 -13 13 -13 56 0 68 8
98 22 84 5 -5 8 -37 6 -72z m132 -6 c0 -54 -21 -91 -34 -58 -8 22 -8 129 1
138 15 15 33 -29 33 -80z m-840 22 c0 -30 -4 -58 -10 -61 -6 -4 -10 17 -10 54
0 34 4 61 10 61 6 0 10 -24 10 -54z m760 -17 c0 -44 -4 -68 -10 -64 -18 11
-12 135 7 135 2 0 3 -32 3 -71z m138 8 c2 -31 -1 -65 -7 -74 -8 -16 -11 -15
-20 10 -6 16 -11 51 -11 78 0 43 3 50 18 47 13 -2 18 -15 20 -61z m182 -18 c0
-62 -2 -69 -20 -69 -18 0 -20 7 -20 56 0 58 14 99 31 89 5 -4 9 -37 9 -76z
m180 11 c0 -64 -7 -93 -21 -84 -10 6 -12 137 -3 147 15 15 24 -8 24 -63z
m1710 -42 c0 -71 -2 -78 -20 -78 -23 0 -25 21 -13 130 5 56 8 61 20 45 8 -12
13 -47 13 -97z m-3584 75 c-7 -7 -26 7 -26 19 0 6 6 6 15 -2 9 -7 13 -15 11
-17z m1567 -23 c6 -51 1 -80 -13 -80 -13 0 -21 48 -14 90 9 54 20 50 27 -10z
m56 -32 c1 -27 -3 -48 -9 -48 -6 0 -10 29 -9 68 1 77 17 59 18 -20z m182 -31
c-8 -8 -11 5 -10 54 l2 64 10 -53 c7 -39 7 -56 -2 -65z m129 42 c0 -52 -3 -70
-12 -67 -8 3 -14 29 -16 71 -2 55 0 67 13 67 12 0 15 -14 15 -71z m200 -10 c0
-52 -3 -70 -12 -67 -14 5 -23 88 -13 125 11 45 25 12 25 -58z m60 6 c0 -35 -4
-67 -10 -70 -6 -4 -10 22 -10 70 0 48 4 74 10 70 6 -3 10 -35 10 -70z m75 55
c4 -11 3 -45 -1 -76 -5 -43 -10 -54 -23 -52 -17 3 -28 80 -16 125 7 28 31 30
40 3z m-6322 -10 c121 -38 201 -127 227 -255 6 -27 13 -158 17 -289 6 -225 5
-240 -12 -253 -11 -7 -31 -13 -45 -13 -27 0 -27 0 -34 96 -11 158 -34 191
-136 196 l-65 3 -6 100 c-6 107 -14 132 -62 183 -28 29 -37 32 -86 32 -119 0
-133 -18 -141 -180 -6 -116 -13 -145 -31 -135 -12 8 -12 167 1 273 14 127 71
217 156 247 56 20 142 18 217 -5z m4727 -31 c0 -31 -4 -48 -10 -44 -5 3 -10
26 -10 51 0 24 5 44 10 44 6 0 10 -23 10 -51z m1083 -19 c6 -48 -3 -77 -22
-66 -12 8 -14 42 -4 100 7 45 18 32 26 -34z m326 -38 c1 -13 -3 -20 -9 -17 -5
3 -9 34 -9 68 l2 62 8 -45 c4 -25 8 -55 8 -68z m235 -5 c-3 -15 -10 -25 -15
-21 -11 6 -12 58 -2 105 l7 34 8 -45 c3 -25 4 -57 2 -73z m-3025 64 c66 -39
125 -91 103 -91 -17 0 -155 86 -177 110 -29 32 1 25 74 -19z m4367 -47 c9 -47
-10 -91 -31 -74 -17 14 -19 57 -5 95 13 33 27 25 36 -21z m-5026 21 c17 -9 30
-20 30 -26 0 -11 -21 -1 -55 25 -26 20 -12 20 25 1z m936 -6 c3 -5 1 -9 -5 -9
-17 0 -41 12 -41 20 0 10 38 1 46 -11z m4131 -31 c-2 -13 -4 -5 -4 17 -1 22 1
32 4 23 2 -10 2 -28 0 -40z m-4757 27 c7 -8 8 -15 2 -15 -5 0 -15 7 -22 15 -7
8 -8 15 -2 15 5 0 15 -7 22 -15z m770 -15 c14 -27 -9 -27 -41 0 l-24 19 27 1
c17 0 31 -7 38 -20z m-1334 -22 c49 -30 67 -48 46 -48 -9 0 -112 69 -112 75 0
10 13 4 66 -27z m1158 -19 c23 -23 33 -39 25 -39 -21 0 -122 62 -127 79 -9 27
62 0 102 -40z m-1753 20 c23 -11 39 -23 36 -26 -6 -6 -75 26 -83 38 -8 14 3
11 47 -12z m464 11 c3 -5 2 -10 -4 -10 -5 0 -13 5 -16 10 -3 6 -2 10 4 10 5 0
13 -4 16 -10z m831 -5 c19 -14 19 -14 -2 -15 -12 0 -27 7 -34 15 -17 20 9 21
36 0z m-985 -12 c31 -19 38 -33 15 -33 -19 0 -76 49 -58 50 8 0 27 -8 43 -17z
m-1753 -21 c12 -8 21 -17 18 -19 -6 -6 -63 24 -71 37 -7 12 21 2 53 -18z
m1292 -4 c36 -21 49 -33 38 -36 -17 -3 -77 24 -113 52 l-20 15 20 1 c11 0 45
-15 75 -32z m995 7 c37 -22 38 -24 15 -25 -27 0 -70 25 -70 41 0 14 12 11 55
-16z m569 11 c41 -17 55 -36 27 -36 -11 0 -33 11 -48 25 -32 28 -27 31 21 11z
m756 -6 c0 -5 -2 -10 -4 -10 -3 0 -8 5 -11 10 -3 6 -1 10 4 10 6 0 11 -4 11
-10z m970 -11 c245 -5 609 -14 810 -19 201 -5 581 -14 845 -20 264 -5 650 -15
858 -21 356 -11 379 -10 391 6 11 16 15 16 42 2 48 -25 67 -52 55 -76 -6 -11
-11 -33 -11 -50 0 -49 -15 -36 -26 22 -7 38 -13 51 -24 48 -8 -2 -19 -4 -25
-4 -5 0 -16 2 -24 4 -11 3 -17 -9 -22 -44 -12 -76 -20 -74 -34 6 -3 22 -11 37
-20 37 -9 0 -17 -15 -20 -37 -10 -59 -13 -62 -14 -13 -2 81 -41 97 -41 17 0
-47 -15 -82 -24 -57 -3 8 -7 31 -8 50 -2 23 -8 35 -18 35 -11 0 -16 -13 -18
-47 -2 -34 -7 -48 -18 -48 -10 0 -14 12 -14 38 0 45 -22 83 -36 61 -4 -8 -8
-31 -9 -53 0 -22 -5 -41 -12 -43 -9 -3 -13 7 -13 29 0 19 -7 43 -15 54 -13 16
-16 17 -25 4 -5 -8 -10 -32 -10 -53 0 -31 -3 -38 -17 -35 -13 2 -19 14 -21 43
-1 22 -5 46 -8 54 -8 24 -27 -4 -33 -51 -8 -56 -25 -51 -31 9 -4 34 -10 49
-22 51 -14 3 -17 -6 -20 -44 -4 -65 -24 -68 -33 -5 -8 58 -19 70 -43 48 -12
-11 -22 -13 -35 -6 -20 12 -25 3 -29 -51 -4 -46 -22 -45 -26 2 -3 39 -28 71
-36 47 -3 -8 -7 -30 -8 -49 -4 -45 -22 -41 -28 6 -3 21 -11 39 -17 42 -13 4
-17 -3 -28 -52 -5 -23 -8 -27 -16 -15 -5 7 -9 23 -9 34 0 26 -17 52 -27 42 -4
-5 -7 -24 -8 -44 0 -52 -23 -54 -31 -4 -8 50 -34 57 -34 9 0 -18 -4 -40 -10
-48 -10 -17 -11 -15 -26 55 -6 25 -15 40 -24 40 -10 0 -16 -13 -18 -40 -4 -52
-22 -71 -22 -24 0 45 -21 77 -37 57 -6 -7 -13 -26 -15 -42 -3 -34 -28 -49 -28
-17 0 11 -5 32 -10 46 -9 23 -13 25 -25 15 -8 -7 -15 -27 -15 -46 0 -47 -18
-52 -25 -7 -15 97 -38 116 -43 36 -4 -71 -12 -84 -28 -48 -7 17 -13 45 -14 63
0 36 -22 44 -39 15 -9 -17 -11 -16 -30 1 -19 17 -33 18 -178 12 -87 -4 -165
-7 -173 -8 -8 0 -23 2 -32 7 -16 6 -18 1 -18 -43 0 -51 -15 -76 -31 -51 -5 8
-9 28 -9 46 0 35 -17 53 -31 32 -5 -8 -9 -29 -9 -46 0 -38 -29 -48 -31 -10 -3
55 -5 62 -21 65 -15 3 -18 -4 -18 -42 0 -38 -3 -46 -19 -46 -22 0 -31 19 -31
66 0 23 -5 34 -15 34 -14 0 -21 -18 -27 -68 -5 -41 -23 -27 -31 26 -6 34 -13
52 -23 52 -10 0 -14 -13 -14 -50 0 -61 -18 -67 -22 -7 -2 29 -8 42 -18 42 -10
0 -16 -13 -18 -42 -2 -24 -7 -43 -12 -43 -5 0 -10 19 -12 43 -4 53 -28 57 -45
7 l-11 -35 -4 34 c-5 49 -25 50 -38 2 -14 -53 -28 -52 -32 2 -4 60 -31 58 -38
-3 -6 -57 -23 -58 -31 -3 -9 72 -25 72 -38 2 -8 -45 -18 -39 -23 16 -4 44 -32
40 -36 -5 -5 -47 -19 -60 -27 -24 -11 49 -15 56 -28 52 -6 -3 -13 -19 -15 -36
-4 -44 -20 -40 -24 6 -2 25 -8 37 -18 37 -10 0 -16 -12 -18 -37 -3 -34 -20
-54 -23 -28 -1 6 -3 15 -4 20 -1 6 -3 17 -4 25 -2 33 -29 14 -35 -25 -8 -48
-26 -44 -26 5 0 32 -14 54 -27 41 -3 -3 -9 -23 -12 -43 -9 -52 -25 -48 -31 7
-4 32 -10 46 -22 48 -15 3 -18 -4 -18 -42 0 -25 -4 -46 -10 -46 -5 0 -10 17
-10 38 0 20 -4 43 -9 51 -14 21 -31 3 -31 -33 0 -18 -7 -41 -15 -52 -13 -16
-16 -17 -25 -4 -5 8 -10 27 -10 43 0 40 -28 35 -36 -8 -8 -44 -22 -45 -26 -3
-4 43 -24 46 -42 6 l-14 -33 -1 30 c-1 17 -6 37 -11 45 -9 13 -11 13 -20 0 -5
-8 -10 -23 -10 -32 0 -24 -11 -48 -21 -48 -5 0 -9 15 -9 33 0 69 -36 75 -42 7
-2 -24 -9 -36 -20 -38 -15 -3 -18 4 -18 43 0 59 -21 57 -33 -3 -10 -52 -30
-54 -43 -4 -11 46 -26 48 -39 5 -12 -43 -22 -42 -31 3 -6 31 -9 35 -30 30 -12
-3 -26 -2 -29 4 -14 23 -34 9 -37 -27 -4 -44 -28 -58 -28 -16 0 15 -5 35 -10
43 -9 13 -11 13 -20 0 -5 -8 -10 -27 -10 -42 0 -42 -17 -33 -24 12 -9 56 -36
55 -36 -1 0 -49 -22 -49 -30 0 -7 43 -22 44 -37 1 -11 -35 -18 -31 -25 15 -5
34 -32 24 -38 -14 -9 -62 -39 -42 -40 26 0 22 -16 40 -27 29 -3 -3 -6 -24 -7
-47 -1 -58 -23 -62 -31 -5 -9 60 -6 66 45 87 39 15 67 17 205 13 88 -3 360 -9
605 -15z m-3895 -4 c30 -13 30 -13 4 -14 -14 -1 -34 6 -45 14 -25 19 -1 19 41
0z m240 -3 c-3 -3 -11 0 -18 7 -9 10 -8 11 6 5 10 -3 15 -9 12 -12z m2432 -4
c37 -26 42 -38 16 -38 -23 0 -83 36 -83 50 0 17 32 11 67 -12z m-1751 -3 c10
-8 14 -15 8 -15 -5 0 -19 7 -30 15 -10 8 -14 15 -8 15 5 0 19 -7 30 -15z m294
-5 c19 -15 21 -20 9 -20 -9 0 -27 9 -40 20 -32 26 -3 27 31 0z m-791 -12 c26
-17 31 -24 19 -26 -18 -3 -73 22 -83 38 -11 18 27 11 64 -12z m1319 10 c7 -7
12 -16 12 -20 0 -15 -27 -8 -45 12 -18 19 -17 20 1 20 11 0 25 -5 32 -12z
m578 -3 c10 -8 14 -15 7 -15 -19 0 -43 11 -43 21 0 13 14 11 36 -6z m-2606
-26 c0 -5 -11 -3 -25 3 -14 6 -25 15 -25 19 0 5 11 3 25 -3 14 -6 25 -15 25
-19z m1046 10 c39 -24 42 -29 15 -29 -23 0 -84 49 -62 50 7 0 29 -9 47 -21z
m1265 4 c13 -16 12 -17 -3 -4 -17 13 -22 21 -14 21 2 0 10 -8 17 -17z m754 7
c3 -5 -1 -10 -9 -10 -8 0 -18 5 -21 10 -3 6 1 10 9 10 8 0 18 -4 21 -10z
m6687 -27 c119 -56 229 -196 354 -448 75 -151 90 -191 133 -356 45 -170 81
-345 81 -391 0 -10 -6 -18 -14 -18 -26 0 -29 -22 -6 -40 22 -17 23 -19 18
-184 -3 -101 -9 -171 -15 -177 -8 -8 -10 17 -6 91 4 70 3 101 -4 97 -6 -4 -14
-30 -18 -59 -3 -29 -12 -66 -20 -83 l-14 -30 4 30 c23 174 26 237 15 285 -18
73 -34 64 -26 -14 4 -40 3 -67 -4 -71 -6 -4 -10 9 -10 32 0 22 -7 48 -15 59
-14 18 -14 17 -15 -13 0 -35 -15 -45 -24 -15 -3 9 -10 53 -16 97 -47 347 -184
699 -377 969 -36 50 -60 66 -72 47 -5 -8 -16 -11 -25 -8 -18 7 -21 32 -6 42 6
3 10 11 10 16 0 13 -53 0 -66 -17 -9 -11 -14 -10 -30 7 -16 17 -16 22 -4 30
12 8 9 14 -16 38 -23 21 -46 30 -85 35 -30 4 -65 13 -78 20 l-23 13 28 20 c45
31 52 33 169 30 100 -2 116 -5 177 -34z m-10252 11 c0 -8 -4 -12 -10 -9 -5 3
-10 10 -10 16 0 5 5 9 10 9 6 0 10 -7 10 -16z m266 1 c10 -8 14 -15 7 -15 -19
0 -43 11 -43 21 0 13 14 11 36 -6z m723 4 c17 -6 31 -15 31 -19 0 -11 -60 6
-74 20 -13 13 2 13 43 -1z m847 -4 c16 -12 16 -14 3 -15 -9 0 -22 7 -29 15
-16 19 0 19 26 0z m315 -11 c7 -8 10 -16 8 -19 -7 -6 -52 19 -56 32 -5 15 33
5 48 -13z m504 4 c14 -6 25 -17 25 -25 0 -11 -6 -11 -30 2 -16 9 -30 20 -30
25 0 13 4 13 35 -2z m270 1 c12 -19 -5 -23 -22 -6 -16 16 -16 17 -1 17 9 0 20
-5 23 -11z m325 -9 c0 -5 -2 -10 -4 -10 -3 0 -8 5 -11 10 -3 6 -1 10 4 10 6 0
11 -4 11 -10z m536 -15 c3 -14 3 -32 0 -41 -10 -27 -31 -9 -34 29 -2 28 1 37
12 37 9 0 18 -11 22 -25z m-2412 9 c25 -10 19 -26 -6 -19 -31 10 -47 25 -26
25 9 0 23 -3 32 -6z m310 0 c9 -3 16 -10 16 -15 0 -14 -26 -10 -40 6 -13 16
-3 20 24 9z m286 -14 c0 -5 -4 -10 -9 -10 -6 0 -13 5 -16 10 -3 6 1 10 9 10 9
0 16 -4 16 -10z m1116 -5 c19 -14 19 -14 -2 -15 -11 0 -29 7 -40 15 -19 14
-19 14 2 15 11 0 29 -7 40 -15z m622 -13 c4 -25 -13 -30 -22 -6 -9 25 -7 36 7
32 6 -3 13 -14 15 -26z m-1408 2 c0 -2 -7 -4 -15 -4 -8 0 -15 4 -15 10 0 5 7
7 15 4 8 -4 15 -8 15 -10z m187 10 c-3 -3 -12 -4 -19 -1 -8 3 -5 6 6 6 11 1
17 -2 13 -5z m698 -14 c3 -5 1 -10 -4 -10 -6 0 -11 5 -11 10 0 6 2 10 4 10 3
0 8 -4 11 -10z m455 -5 c10 -12 9 -16 -5 -21 -19 -8 -40 9 -31 25 10 15 21 14
36 -4z m-2485 -20 c424 -8 1085 -19 1470 -25 652 -10 1406 -27 1411 -33 1 -1
-2 -271 -7 -599 -8 -583 -23 -1031 -35 -1049 -7 -12 -1264 -12 -1283 0 -17 11
-12 343 15 1150 15 459 14 514 -13 487 -10 -9 -19 -218 -32 -736 -7 -228 -16
-501 -21 -607 -6 -105 -10 -209 -10 -231 0 -75 -1 -75 -269 -68 -130 4 -262 9
-293 12 l-56 6 -83 116 c-45 65 -110 154 -143 200 l-61 83 3 252 c1 139 7 347
14 464 6 116 8 219 4 229 -6 16 -8 16 -23 1 -14 -13 -17 -62 -24 -339 -11
-402 -18 -528 -31 -528 -10 0 -6 242 11 660 7 183 6 202 -18 198 -14 -3 -17
-36 -24 -278 -4 -151 -11 -302 -17 -335 -6 -40 -7 55 -3 281 4 263 2 343 -7
349 -7 4 -16 2 -20 -5 -4 -7 -11 -141 -14 -299 -4 -157 -11 -320 -16 -361 -6
-52 -8 37 -5 288 4 311 2 362 -10 362 -21 0 -23 -19 -30 -300 -9 -395 -19
-408 -25 -30 -4 289 -7 335 -20 335 -13 0 -16 -44 -22 -304 -4 -188 -11 -308
-18 -315 -7 -7 -10 88 -10 311 0 296 -5 356 -25 322 -6 -8 -16 -241 -25 -551
0 -10 -4 -18 -10 -18 -6 0 -10 100 -10 280 0 173 -4 280 -10 280 -22 0 -30
-46 -31 -172 -1 -73 -4 -173 -8 -223 -7 -74 -8 -52 -9 121 -2 224 -7 274 -27
274 -9 0 -14 -59 -19 -227 -4 -126 -10 -231 -14 -235 -4 -4 -13 -3 -21 1 -10
7 -10 13 -2 29 7 13 11 96 11 226 0 174 -2 206 -15 206 -19 0 -23 -33 -28
-238 -3 -95 -8 -176 -11 -179 -7 -7 -13 -4 -165 79 l-114 63 2 135 c1 147 -6
177 -36 147 -15 -15 -19 -39 -21 -138 l-4 -121 -34 5 c-20 3 -52 14 -72 24
l-37 18 -5 95 c-6 112 -13 130 -39 98 l-18 -22 -7 22 c-8 26 -31 29 -40 6 -3
-9 -6 -47 -6 -84 0 -38 -4 -72 -10 -75 -6 -4 -10 25 -10 79 0 86 -9 108 -35
86 -11 -9 -15 -34 -15 -86 0 -54 -4 -74 -13 -74 -9 0 -12 18 -9 71 3 44 0 75
-7 82 -20 20 -35 -11 -39 -83 -6 -97 -22 -88 -19 9 2 82 -9 111 -35 95 -7 -5
-22 -9 -33 -9 -18 0 -20 -8 -23 -72 -3 -67 6 -91 23 -63 9 15 25 12 25 -5 0
-9 -9 -15 -22 -15 -13 0 -97 -5 -187 -11 -90 -6 -167 -7 -171 -2 -5 4 -10 124
-12 266 l-4 257 196 0 c107 0 542 -7 965 -15z m4965 5 c19 -6 9 -8 -35 -8 -33
0 -69 3 -80 8 -26 11 80 11 115 0z m3761 -16 c30 -9 72 -25 94 -36 59 -31 160
-133 220 -223 63 -96 165 -296 211 -417 66 -173 130 -444 149 -633 14 -140
-25 -415 -74 -520 -11 -22 -28 -60 -39 -85 -24 -53 -58 -97 -67 -88 -4 4 5 33
20 64 83 176 106 286 112 552 4 161 2 222 -6 222 -7 0 -11 -40 -11 -127 0
-178 -16 -344 -40 -433 -23 -84 -78 -210 -91 -210 -13 0 -11 11 20 107 16 48
36 131 46 183 18 102 32 395 21 454 -8 42 -26 39 -26 -5 0 -16 -4 -29 -10 -29
-5 0 -10 9 -10 19 0 28 -11 52 -21 45 -5 -3 -9 -80 -9 -172 0 -162 -16 -306
-42 -370 -18 -46 -22 -6 -7 77 15 81 18 426 5 494 -12 62 -26 42 -27 -40 l-1
-78 -18 80 c-29 128 -65 241 -119 379 -57 144 -66 159 -93 150 -14 -4 -22 3
-34 32 -36 87 -121 223 -176 282 -32 34 -58 71 -58 81 0 24 -29 36 -44 18 -6
-8 -37 -19 -68 -26 -47 -10 -66 -21 -103 -57 -53 -54 -60 -36 -11 28 39 50 52
58 101 58 50 0 52 17 4 30 -39 11 -45 9 -91 -19 -40 -25 -49 -28 -46 -14 2 10
23 28 48 41 37 19 55 22 103 18 31 -3 57 -3 57 0 0 3 -21 14 -47 26 l-47 21
30 12 29 12 -30 7 -30 8 29 15 c38 20 17 35 -36 26 -21 -3 -38 -3 -38 0 0 3
19 17 43 31 51 31 143 35 228 10z m-3994 -26 c-3 -7 -5 -2 -5 12 0 14 2 19 5
13 2 -7 2 -19 0 -25z m1083 -9 c0 -17 -4 -28 -10 -24 -5 3 -10 17 -10 31 0 13
5 24 10 24 6 0 10 -14 10 -31z m770 19 c0 -7 -3 -24 -7 -37 -6 -23 -7 -23 -13
-6 -8 23 -1 55 11 55 5 0 9 -6 9 -12z m-8231 -140 c1 -37 -3 -70 -9 -73 -6 -4
-10 34 -9 107 1 87 3 104 10 73 4 -22 8 -70 8 -107z m51 49 c0 -45 -5 -89 -10
-97 -7 -10 -10 18 -10 88 0 66 4 101 10 97 6 -3 10 -43 10 -88z m5245 53 c237
-5 759 -19 1160 -29 402 -11 953 -25 1225 -31 297 -7 537 -16 600 -25 58 -7
137 -16 175 -20 80 -7 274 -46 385 -76 219 -61 573 -186 635 -224 11 -7 33
-16 49 -19 31 -8 76 -34 76 -46 0 -4 -60 -10 -132 -14 -292 -15 -529 -113
-780 -324 -184 -154 -403 -499 -479 -757 -12 -38 -26 -76 -31 -82 -8 -10 -157
-13 -683 -13 -370 0 -694 3 -720 7 l-48 6 4 786 c3 518 1 788 -6 791 -15 7
-23 -233 -33 -938 -6 -469 -11 -625 -21 -635 -9 -9 -194 -11 -834 -8 -452 2
-928 5 -1057 5 l-235 1 0 260 c0 143 5 515 9 828 l9 567 151 0 c83 0 345 -5
581 -10z m3055 -21 c0 -10 -4 -19 -10 -19 -5 0 -10 12 -10 26 0 14 4 23 10 19
6 -3 10 -15 10 -26z m-8400 -81 c0 -67 -13 -96 -25 -57 -4 12 -4 51 0 87 9 83
25 64 25 -30z m8462 60 c-9 -9 -12 -7 -12 12 0 19 3 21 12 12 9 -9 9 -15 0
-24z m1398 -40 c22 -48 25 -68 10 -68 -12 0 -31 36 -41 77 -10 47 8 41 31 -9z
m-1154 -4 c-5 -13 -10 -14 -18 -6 -6 6 -8 18 -4 28 5 13 10 14 18 6 6 -6 8
-18 4 -28z m84 7 c0 -11 -5 -23 -11 -27 -15 -9 -33 12 -26 30 9 23 37 20 37
-3z m80 -21 c0 -25 -29 -38 -41 -19 -15 25 -10 39 16 39 18 0 25 -5 25 -20z
m172 -25 c68 -19 177 -54 243 -77 139 -49 423 -189 543 -268 78 -51 103 -77
65 -67 -10 3 -51 13 -92 22 -62 15 -76 22 -90 47 -10 18 -27 31 -45 35 -19 4
-31 15 -38 34 -8 24 -14 27 -37 23 -20 -4 -30 -1 -34 10 -4 9 -18 16 -32 16
-14 0 -28 7 -32 16 -4 10 -13 14 -29 10 -17 -5 -26 -1 -34 15 -9 16 -18 19
-39 14 -23 -5 -29 -1 -39 20 -10 21 -15 24 -31 16 -21 -12 -31 -5 -31 21 0 22
-13 23 -30 3 -20 -24 -37 -18 -49 17 l-11 31 -25 -23 -25 -23 -11 31 c-12 36
-21 39 -39 17 -17 -20 -27 -19 -35 6 -6 17 -12 19 -37 13 -25 -5 -34 -2 -48
16 -15 20 -19 21 -38 9 -27 -17 -44 -3 -36 29 4 12 8 22 9 22 2 0 59 -16 127
-35z m1720 -40 c11 -20 11 -20 -11 0 -13 11 -28 29 -33 40 -11 20 -11 20 11 0
13 -11 28 -29 33 -40z m-10612 5 c0 -16 -4 -30 -10 -30 -5 0 -10 14 -10 30 0
17 5 30 10 30 6 0 10 -13 10 -30z m9650 -66 c17 -28 30 -59 30 -69 0 -17 -1
-17 -19 -1 -10 9 -26 34 -36 56 -10 22 -22 40 -27 40 -16 0 -8 -33 23 -87 17
-30 29 -57 26 -60 -10 -9 -57 45 -57 67 0 11 -4 20 -10 20 -15 0 -12 -37 5
-70 14 -28 14 -30 -3 -30 -10 0 -26 6 -37 14 -23 16 -17 75 16 154 21 50 23
52 41 35 10 -9 32 -40 48 -69z m1030 50 c0 -8 -4 -12 -10 -9 -5 3 -10 10 -10
16 0 5 5 9 10 9 6 0 10 -7 10 -16z m-11346 -74 c41 -69 31 -307 -15 -363 -26
-33 -33 -15 -20 49 19 99 13 244 -15 337 -10 33 28 15 50 -23z m131 18 c40
-36 58 -146 40 -255 -17 -108 -42 -149 -95 -158 -22 -4 -43 -4 -49 -1 -5 3 -1
42 11 93 22 102 25 185 8 266 -6 31 -9 61 -5 67 11 18 63 11 90 -12z m-209
-60 c27 -82 20 -205 -18 -300 -8 -21 -17 -28 -39 -28 -18 0 -29 6 -32 18 -3 9
-10 38 -17 64 -8 29 -11 90 -8 158 3 108 4 113 31 136 38 32 60 19 83 -48z
m798 43 c35 -36 56 -107 56 -185 0 -93 -5 -102 -67 -131 -30 -14 -58 -23 -63
-20 -4 2 -10 53 -13 112 -4 76 -13 127 -29 171 -26 73 -21 82 48 82 31 0 46
-6 68 -29z m-159 -25 c47 -80 59 -311 19 -351 -16 -16 -39 -21 -30 -7 14 22
14 116 0 201 -12 79 -28 127 -62 194 -2 4 8 7 22 7 19 0 31 -10 51 -44z m250
20 c29 -29 45 -84 45 -159 0 -57 -12 -97 -29 -97 -4 0 -11 35 -14 78 -3 42
-13 97 -22 122 -26 72 -28 80 -16 80 7 0 23 -11 36 -24z m10040 -14 c58 -40
183 -238 236 -377 57 -144 169 -523 169 -564 -1 -33 -19 16 -79 215 -96 322
-193 550 -266 632 -50 55 -131 112 -161 112 -46 0 -85 -39 -126 -128 -43 -90
-62 -98 -34 -14 17 51 91 133 136 151 35 14 78 4 125 -27z m-10619 -9 c15 -30
19 -60 19 -138 -1 -87 -4 -108 -27 -157 -26 -56 -48 -75 -48 -42 0 9 10 48 21
86 22 70 22 150 3 256 -8 44 9 41 32 -5z m196 8 c30 -12 41 -25 59 -65 30 -70
36 -182 15 -279 -15 -65 -22 -79 -52 -102 -19 -14 -42 -25 -51 -23 -27 5 -73
89 -83 152 -10 64 2 232 20 282 11 28 38 57 50 52 3 -2 22 -10 42 -17z m10337
-32 c41 -14 39 -25 -5 -32 -54 -9 -80 -40 -110 -131 -15 -45 -33 -90 -42 -101
-13 -18 -14 -15 -8 35 7 66 65 190 103 220 30 24 23 23 62 9z m637 -61 c14
-27 23 -52 20 -55 -2 -3 -19 23 -36 57 -17 34 -26 59 -20 55 6 -3 22 -29 36
-57z m-9689 -82 c-4 -9 -11 -16 -18 -16 -6 0 -8 7 -5 16 3 9 7 34 7 57 l1 42
10 -42 c6 -23 8 -49 5 -57z m9024 25 c-33 -33 -81 -128 -81 -161 0 -6 -4 -10
-9 -10 -9 0 22 117 41 155 19 36 41 55 65 55 22 0 21 -2 -16 -39z m154 19 c3
-5 1 -10 -4 -10 -6 0 -11 5 -11 10 0 6 2 10 4 10 3 0 8 -4 11 -10z m-11133
-74 c5 -22 7 -44 5 -50 -4 -12 -30 33 -42 72 -6 20 -4 23 11 20 12 -2 21 -17
26 -42z m-64 -23 c63 -93 116 -208 166 -358 47 -142 60 -216 73 -417 3 -54 10
-98 14 -98 18 0 8 -17 -16 -28 -53 -24 -80 -9 -68 37 10 37 -17 324 -39 411
-32 131 -102 305 -172 428 -41 74 -43 82 -16 82 12 0 33 -20 58 -57z m11092
52 c0 -3 -11 -22 -25 -43 -13 -20 -34 -63 -46 -95 -26 -67 -47 -64 -29 4 21
77 60 139 87 139 7 0 13 -2 13 -5z m200 -130 c82 -172 226 -612 206 -632 -11
-12 -34 31 -41 76 -10 67 -64 269 -79 299 -8 15 -31 72 -51 127 -21 55 -54
135 -75 178 -21 42 -34 77 -29 77 5 0 36 -56 69 -125z m-11383 73 c90 -127
193 -398 213 -565 6 -48 15 -122 20 -163 5 -41 6 -100 2 -130 -7 -52 -8 -55
-36 -55 l-29 0 -1 175 c-2 125 -7 198 -20 255 -35 156 -115 330 -209 450 -35
46 -37 50 -21 62 30 22 49 15 81 -29z m1993 11 c85 -13 317 -90 401 -132 100
-51 267 -152 339 -206 130 -98 374 -352 492 -512 107 -145 218 -306 218 -314
0 -4 20 -37 44 -74 24 -36 67 -109 96 -161 30 -52 76 -119 104 -148 67 -70
213 -188 301 -242 39 -24 101 -63 138 -88 115 -76 142 -80 517 -76 179 2 1223
11 2320 19 1097 9 2014 18 2038 21 60 8 49 29 -14 28 -504 -6 -3561 -28 -4004
-28 l-605 0 -75 24 c-70 22 -73 24 -45 31 17 3 332 8 700 9 369 1 729 5 800 9
125 6 132 5 179 -19 l49 -24 331 2 c298 3 332 5 344 20 10 14 32 17 110 19
279 8 2333 22 2347 17 24 -10 18 -23 -16 -31 -26 -7 -34 -17 -48 -58 l-17 -50
-360 -7 c-197 -3 -1261 -8 -2364 -10 -1605 -2 -2016 0 -2061 10 -94 22 -208
69 -252 104 -23 19 -72 48 -108 66 -134 65 -236 181 -464 532 -170 259 -264
385 -422 562 -121 136 -250 252 -372 335 -105 72 -423 229 -491 242 -30 6 -68
18 -83 26 -34 17 -180 42 -302 50 -102 7 -224 -8 -241 -30 -15 -19 -59 -35
-99 -35 -22 0 -53 -13 -92 -39 -32 -21 -96 -60 -143 -87 -69 -40 -117 -80
-249 -212 -91 -90 -177 -170 -193 -178 -41 -21 -130 -36 -142 -24 -5 5 -23 10
-38 10 -64 0 -40 50 93 197 96 105 146 146 279 230 198 124 331 181 505 218
75 16 465 19 555 4z m-2088 -56 c25 -27 69 -89 97 -138 104 -185 145 -349 144
-576 -1 -141 -10 -179 -41 -179 -15 0 -17 17 -17 183 -1 189 -7 230 -57 387
-34 106 -117 257 -180 327 -18 20 -18 43 0 43 4 0 29 -21 54 -47z m11280 15
c-7 -7 -12 -8 -12 -2 0 14 12 26 19 19 2 -3 -1 -11 -7 -17z m-447 -22 c124
-35 255 -89 313 -130 67 -47 232 -186 232 -196 0 -3 34 -44 75 -90 41 -46 75
-90 75 -98 0 -7 29 -54 64 -105 35 -51 70 -106 79 -123 45 -88 137 -373 184
-569 26 -111 74 -250 104 -304 17 -29 25 -51 17 -49 -22 8 -94 170 -128 288
-94 338 -191 587 -284 729 -67 102 -273 311 -360 366 -201 125 -328 163 -582
173 -196 8 -229 4 -397 -48 -82 -26 -107 -39 -139 -71 -49 -50 -84 -73 -98
-64 -6 4 -15 -7 -21 -24 -8 -22 -25 -38 -60 -56 l-49 -24 0 34 c0 33 -1 34
-26 24 -30 -11 -29 -11 -38 18 -7 23 33 59 184 160 98 66 276 142 415 177 11
2 101 3 200 2 130 -2 197 -8 240 -20z m576 -83 c38 -84 79 -217 79 -256 0 -31
-2 -30 -101 68 l-100 100 3 56 c3 42 11 63 33 92 28 34 31 36 44 20 7 -10 26
-46 42 -80z m-11466 40 c127 -132 227 -463 211 -696 -8 -119 -16 -156 -37
-167 -27 -15 -31 1 -18 77 12 78 4 270 -16 378 -28 148 -106 329 -177 410 -54
62 -23 61 37 -2z m11296 -35 l-9 -33 -1 36 c-1 20 2 39 6 43 13 12 15 -10 4
-46z m-11340 -5 c26 -27 79 -123 79 -142 0 -5 -13 -3 -29 5 -18 9 -35 30 -46
57 -9 23 -28 56 -41 74 -46 61 -18 66 37 6z m12174 -25 c15 -52 20 -86 10 -76
-10 9 -42 138 -34 132 5 -3 15 -28 24 -56z m-11291 5 c9 -26 31 -62 49 -81 26
-27 29 -34 17 -42 -23 -15 -40 -12 -46 8 -3 9 -17 45 -30 80 -26 68 -29 82
-15 82 5 0 16 -21 25 -47z m969 -78 c4 -61 6 -159 5 -220 -3 -103 -4 -110 -24
-113 -42 -6 -46 15 -42 225 2 109 7 204 11 211 5 7 16 12 25 10 14 -3 18 -23
25 -113z m92 -115 c0 -218 -1 -225 -20 -225 -19 0 -20 8 -23 215 -1 118 0 221
3 228 3 7 13 12 22 10 17 -3 18 -22 18 -228z m110 213 c4 -10 10 -118 13 -240
l5 -223 -26 0 c-52 0 -57 17 -57 194 0 90 3 191 6 225 6 55 9 61 29 61 13 0
26 -8 30 -17z m93 0 c5 -10 12 -125 15 -256 l5 -238 -22 3 c-17 2 -22 12 -28
53 -8 64 -10 418 -2 439 8 21 21 20 32 -1z m9626 -96 c70 -187 95 -272 115
-390 26 -149 38 -327 23 -353 -10 -18 -11 -17 -22 11 -6 16 -8 40 -5 54 4 14
6 64 6 111 0 99 -29 221 -115 488 -31 94 -56 177 -56 184 0 26 19 -11 54 -105z
m-11797 5 c8 -32 -3 -39 -28 -16 -28 25 -49 67 -49 96 1 21 4 19 36 -17 19
-21 37 -50 41 -63z m1767 72 c3 -9 6 -106 6 -215 l0 -200 -27 3 -28 3 0 195
c0 107 3 203 7 213 9 21 34 22 42 1z m497 0 c9 -11 15 -83 20 -262 5 -135 7
-248 5 -250 -2 -1 -15 0 -30 4 l-26 6 0 259 c0 142 4 259 9 259 5 0 14 -7 22
-16z m-1771 -24 c10 0 42 -76 68 -162 45 -146 63 -420 33 -498 -14 -38 -18
-14 -29 170 -10 158 -12 172 -61 325 -28 88 -51 164 -51 169 0 4 7 5 16 2 9
-3 19 -6 24 -6z m387 -41 c33 -65 39 -107 19 -127 -10 -10 -19 -13 -25 -7 -15
16 -53 156 -47 172 10 24 30 10 53 -38z m1485 39 c14 -11 18 -53 28 -262 11
-260 9 -283 -28 -260 -9 6 -20 22 -23 35 -10 35 -11 499 -1 499 5 0 15 -6 24
-12z m-1751 -40 c39 -77 70 -224 74 -351 2 -64 7 -122 10 -127 3 -6 0 -10 -9
-10 -8 0 -21 -2 -28 -5 -11 -5 -18 25 -31 144 -12 98 -29 189 -52 267 -19 65
-35 120 -35 121 0 2 11 3 25 3 19 0 30 -10 46 -42z m1053 20 c9 -41 17 -344
10 -361 -10 -26 -60 -22 -68 6 -18 66 1 353 24 367 23 15 29 12 34 -12z m-950
-19 c17 -19 26 -43 26 -64 0 -18 7 -52 15 -75 21 -58 19 -109 -6 -149 -11 -18
-22 -31 -25 -28 -3 3 -17 56 -30 119 -13 62 -31 133 -39 157 -20 60 -19 71 9
71 15 0 34 -12 50 -31z m93 -31 c19 -46 22 -67 16 -118 -3 -34 -10 -59 -16
-57 -6 2 -20 48 -33 103 -12 54 -25 107 -30 117 -6 16 -3 18 17 15 19 -2 29
-16 46 -60z m1666 30 c15 -11 19 -49 28 -271 12 -279 10 -293 -34 -264 -32 21
-37 66 -37 335 0 222 2 230 43 200z m8140 -234 c5 -136 0 -161 -27 -151 -14 6
-16 30 -16 185 0 129 3 181 13 191 15 15 23 -40 30 -225z m71 204 c9 -61 15
-354 7 -366 -6 -10 -11 -9 -22 4 -10 13 -15 59 -17 181 -4 165 0 213 18 213 5
0 11 -15 14 -32z m75 -215 c1 -158 -10 -212 -23 -117 -9 65 -8 349 2 358 13
13 20 -74 21 -241z m143 186 c3 -30 6 -136 7 -237 1 -143 -2 -183 -11 -180
-15 5 -13 -11 -29 234 -7 105 -9 203 -5 218 11 43 30 25 38 -35z m-9340 -84
c1 -74 2 -154 3 -177 0 -36 -3 -43 -21 -46 -20 -3 -22 2 -28 105 -4 59 -9 132
-12 161 -5 42 -2 57 12 73 38 42 44 27 46 -116z m9265 -55 c11 -176 8 -250 -8
-250 -13 0 -17 33 -22 175 -6 139 1 271 13 258 4 -4 12 -87 17 -183z m-298
-42 c1 -108 -1 -128 -14 -128 -13 0 -15 24 -15 159 0 169 10 234 22 146 3 -27
7 -107 7 -177z m445 150 c14 -173 19 -418 8 -418 -19 0 -21 14 -32 195 -10
171 -6 295 10 295 4 0 10 -33 14 -72z m-8367 10 c12 -36 22 -522 11 -534 -14
-13 -58 29 -62 59 -7 42 -14 515 -8 521 12 13 48 -15 59 -46z m7847 -4 c10
-79 7 -272 -5 -280 -6 -3 -15 0 -20 7 -10 16 -12 302 -2 312 14 15 21 5 27
-39z m608 -213 c6 -133 8 -245 4 -248 -3 -4 -12 -1 -19 6 -13 13 -30 385 -20
459 12 95 25 15 35 -217z m69 177 c12 -65 11 -445 -2 -453 -6 -4 -13 -4 -16
-1 -8 8 -26 485 -18 504 9 24 26 0 36 -50z m-9662 -54 c14 -98 14 -197 -1
-212 -21 -21 -47 -14 -54 14 -9 33 1 278 11 295 14 22 32 -17 44 -97z m8905
75 c3 -17 6 -82 6 -145 0 -106 -8 -141 -26 -112 -10 16 -19 251 -11 273 10 25
24 17 31 -16z m1871 -45 l5 -39 -14 35 c-18 43 -20 68 -6 54 6 -6 13 -28 15
-50z m-9527 23 c22 -23 22 -28 20 -302 -2 -174 -7 -279 -13 -281 -5 -2 -21 5
-35 16 l-25 19 -1 285 c-1 262 0 286 16 286 9 0 26 -10 38 -23z m7581 -124 c1
-103 -8 -146 -23 -107 -8 22 -8 239 1 248 14 14 22 -31 22 -141z m903 111 c5
-16 8 -72 8 -124 -1 -52 2 -156 6 -231 7 -133 1 -167 -24 -136 -15 19 -25 530
-10 525 6 -2 16 -18 20 -34z m-9831 -143 c1 -125 -7 -168 -28 -147 -9 9 -6
250 3 279 14 45 25 -9 25 -132z m9916 -42 c14 -223 16 -379 3 -379 -20 0 -28
39 -34 170 -3 74 -9 185 -12 247 -7 116 -3 148 19 141 8 -3 15 -57 24 -179z
m409 44 l5 -48 -20 24 c-12 13 -21 37 -21 56 0 18 -2 48 -5 66 l-5 34 20 -42
c11 -23 23 -63 26 -90z m-10406 -37 c0 -108 -3 -136 -15 -146 -30 -25 -37 3
-33 127 3 114 17 171 39 158 5 -4 9 -66 9 -139z m1532 -2 c3 -71 11 -165 17
-210 16 -130 25 -314 14 -314 -5 0 -24 16 -43 35 l-34 35 3 272 c2 282 5 321
25 315 7 -2 13 -51 18 -133z m7399 59 c8 -60 2 -113 -12 -113 -5 0 -9 41 -9
92 0 100 9 110 21 21z m1140 45 c15 -28 34 -547 21 -560 -23 -23 -37 29 -44
156 -22 441 -22 426 -5 426 9 0 22 -10 28 -22z m-1207 -19 c15 -79 2 -184 -19
-149 -9 15 -19 146 -12 164 10 26 24 18 31 -15z m-9969 -108 c25 -148 18 -328
-16 -391 l-24 -45 -3 180 c-4 201 6 396 18 374 4 -8 16 -61 25 -118z m2725 91
c21 -17 22 -28 31 -257 4 -132 11 -301 15 -375 l6 -135 -30 43 c-27 40 -29 51
-35 170 -4 70 -14 220 -24 333 -20 242 -16 264 37 221z m7168 -93 c-2 -35 -7
-64 -13 -64 -13 0 -19 68 -10 113 10 56 26 22 23 -49z m-8878 -42 c0 -98 -3
-116 -18 -130 -10 -10 -22 -14 -25 -10 -4 3 -7 54 -7 111 0 84 3 109 17 124 9
10 20 18 25 18 4 0 8 -51 8 -113z m10249 33 c15 -95 25 -480 13 -510 l-9 -24
-13 24 c-17 31 -28 601 -12 585 6 -5 15 -39 21 -75z m-1704 -29 c-55 -80 -77
-103 -54 -58 19 36 102 147 107 142 2 -2 -21 -40 -53 -84z m164 52 c-13 -21
-40 -63 -60 -93 -20 -30 -72 -125 -115 -210 -54 -107 -80 -148 -82 -133 -7 48
134 319 226 431 43 52 62 55 31 5z m2378 0 c-3 -10 -5 -4 -5 12 0 17 2 24 5
18 2 -7 2 -21 0 -30z m-9255 -44 c11 -46 27 -811 18 -827 -4 -9 -14 5 -28 39
-18 42 -22 72 -22 163 0 61 -5 154 -10 206 -13 131 -24 434 -17 454 11 27 50
4 59 -35z m6976 -11 c-3 -47 -21 -55 -26 -12 -4 31 4 54 18 54 7 0 10 -17 8
-42z m1502 36 c0 -3 7 -60 15 -127 8 -67 16 -171 19 -232 2 -60 7 -162 11
-225 l7 -115 -23 33 c-20 31 -23 53 -35 290 -16 318 -17 382 -4 382 6 0 10 -3
10 -6z m790 -61 c0 -32 -5 -28 -14 10 -4 19 -3 26 4 22 5 -3 10 -18 10 -32z
m-11200 -57 c0 -86 -5 -116 -21 -116 -10 0 -12 183 -2 193 18 18 23 0 23 -77z
m450 49 c0 -2 -9 -9 -20 -15 -12 -6 -20 -7 -20 -1 0 5 8 12 18 14 9 3 18 5 20
6 1 0 2 -1 2 -4z m10045 -58 c3 -23 10 -105 15 -182 5 -77 16 -212 24 -300 9
-88 15 -196 15 -240 0 -79 -1 -79 -14 -43 -7 20 -18 90 -24 155 -6 65 -14 141
-17 168 -5 48 -18 226 -31 420 -5 81 -4 88 10 77 9 -8 19 -32 22 -55z m-9840
44 c-10 -8 -94 -31 -116 -31 -31 0 12 22 57 29 70 12 69 12 59 2z m1357 -8
c17 -15 18 -38 18 -323 0 -169 5 -378 11 -464 6 -87 8 -160 5 -164 -4 -3 -15
3 -26 14 -17 18 -19 48 -29 421 -13 471 -13 533 -4 533 3 0 15 -7 25 -17z
m6819 -16 c-16 -16 -26 0 -10 19 9 11 15 12 17 4 2 -6 -1 -17 -7 -23z m-8471
-7 c0 -5 -5 -10 -11 -10 -5 0 -7 5 -4 10 3 6 8 10 11 10 2 0 4 -4 4 -10z
m-442 -90 c-1 -50 -8 -94 -15 -101 -23 -23 -33 2 -33 85 0 82 9 106 38 106 11
0 13 -18 10 -90z m562 75 c0 -6 -129 -65 -143 -65 -24 0 18 29 58 40 25 7 48
17 51 21 5 9 34 13 34 4z m220 -6 c-55 -12 -168 -38 -195 -46 -11 -3 -17 -2
-13 2 11 12 181 53 218 53 33 0 32 -1 -10 -9z m10271 -378 c-23 -129 -42 -193
-59 -199 -17 -5 -15 49 4 94 26 62 54 251 54 365 0 154 15 144 18 -12 2 -97
-3 -162 -17 -248z m-10672 365 c-11 -11 -140 -96 -145 -96 -3 0 -2 5 1 10 8
14 126 90 139 90 5 0 7 -2 5 -4z m-464 -106 c6 -86 4 -105 -10 -127 -14 -20
-19 -23 -26 -12 -10 16 -12 222 -2 232 22 23 31 1 38 -93z m2280 -166 c22
-386 29 -660 17 -668 -22 -14 -40 24 -46 101 -20 244 -33 812 -19 827 4 3 13
0 20 -7 10 -10 18 -80 28 -253z m-2371 229 c3 -16 8 -79 12 -140 7 -117 -4
-173 -32 -173 -16 0 -19 111 -7 258 6 83 17 105 27 55z m1381 -3 c97 -26 239
-92 326 -150 82 -55 213 -187 268 -268 61 -90 128 -235 151 -327 14 -53 23
-128 27 -220 4 -120 2 -155 -17 -245 -86 -417 -402 -738 -813 -825 -105 -23
-331 -20 -437 5 -208 49 -380 149 -526 303 -121 127 -203 276 -252 455 -23 85
-26 117 -26 262 -1 150 1 174 26 265 108 391 424 684 823 761 107 20 348 12
450 -16z m9439 -12 c8 -24 20 -83 26 -133 15 -133 33 -726 22 -737 -5 -5 -12
39 -16 109 -7 130 -21 286 -38 433 -14 122 -25 370 -16 370 3 0 13 -19 22 -42z
m651 22 c6 -19 -24 -234 -31 -227 -2 2 -1 58 3 125 6 117 14 146 28 102z
m-11550 -428 c-3 -13 -10 -20 -17 -16 -8 5 -9 63 -5 203 9 275 21 298 25 46 1
-115 0 -220 -3 -233z m9910 428 c232 -27 426 -118 602 -284 125 -118 201 -243
271 -444 l37 -107 0 -195 c0 -211 -6 -248 -65 -394 -101 -256 -269 -439 -505
-552 -158 -76 -245 -96 -435 -101 -151 -4 -173 -2 -261 20 -315 81 -576 294
-704 571 -69 149 -79 189 -78 327 0 72 8 161 16 205 9 44 23 124 32 180 28
182 82 312 177 421 233 267 558 393 913 353z m-1095 -195 c-33 -98 -74 -235
-91 -304 -16 -69 -35 -130 -40 -136 -7 -7 -9 -2 -5 15 3 14 12 64 21 111 8 47
29 131 45 185 16 54 30 106 30 115 0 20 89 203 95 197 3 -3 -22 -85 -55 -183z
m-8190 160 c0 -2 -33 -27 -73 -54 -160 -108 -327 -315 -397 -493 -38 -97 -55
-120 -47 -66 17 112 188 373 313 477 27 23 56 48 64 56 14 13 130 85 137 85 2
0 3 -2 3 -5z m9616 -11 c18 -14 18 -14 -6 -3 -31 14 -36 19 -24 19 6 0 19 -7
30 -16z m-10966 -19 c0 -8 -16 -36 -36 -62 -55 -72 -130 -236 -160 -348 -24
-93 -26 -110 -21 -260 5 -193 24 -274 97 -421 128 -262 349 -455 603 -529 32
-9 108 -23 170 -30 l112 -14 -100 4 c-237 8 -491 130 -657 316 -137 154 -229
340 -259 524 -20 124 -7 340 26 445 34 106 101 241 161 326 45 63 64 78 64 49z
m65 -161 c-7 -39 -32 -64 -41 -41 -6 16 22 193 34 211 9 14 15 -128 7 -170z
m1355 172 c0 -2 -24 -19 -52 -36 -29 -18 -70 -46 -91 -63 -21 -16 -40 -27 -43
-24 -6 6 37 38 121 89 64 40 65 40 65 34z m1825 -45 c11 -23 17 -97 25 -333
14 -431 13 -498 -5 -498 -28 0 -35 39 -35 207 -1 174 -14 491 -26 594 -6 50
-4 59 9 59 9 0 23 -13 32 -29z m-2576 -260 c1 -170 -9 -261 -29 -261 -9 0 -20
184 -20 347 0 108 3 140 17 166 l17 32 7 -50 c4 -27 8 -133 8 -234z m411 271
c0 -4 -23 -25 -50 -46 -169 -129 -327 -440 -373 -736 -3 -14 -5 0 -6 31 -1 71
37 222 82 328 59 136 174 290 287 387 53 46 60 49 60 36z m90 -7 c0 -2 -10
-10 -22 -16 -21 -11 -22 -11 -9 4 13 16 31 23 31 12z m8670 -25 c-19 -16 -39
-30 -44 -30 -12 0 -5 7 36 36 46 32 50 29 8 -6z m-7285 -18 c-3 -3 -11 0 -18
7 -9 10 -8 11 6 5 10 -3 15 -9 12 -12z m9740 -59 c-10 -53 -18 -32 -9 24 4 26
10 40 12 30 2 -11 1 -35 -3 -54z m-581 19 c11 -21 16 -84 21 -243 3 -118 10
-279 16 -358 6 -96 6 -148 -1 -155 -24 -24 -25 -14 -50 484 -6 124 -13 242
-15 263 -6 44 8 49 29 9z m-10634 14 c0 -2 -21 -28 -46 -58 -71 -83 -148 -205
-188 -300 -20 -48 -48 -107 -62 -133 -17 -30 -33 -84 -45 -158 -20 -117 -19
-137 6 -137 11 0 15 12 15 48 0 56 24 135 47 154 14 12 15 10 10 -17 -16 -74
-28 -258 -22 -345 17 -257 125 -503 302 -691 36 -38 64 -72 61 -74 -9 -10
-105 62 -185 138 -167 160 -270 356 -317 606 -18 94 -21 201 -6 201 6 0 10 -4
10 -10 0 -16 27 -11 34 6 3 9 6 31 6 50 0 51 28 183 49 229 10 22 26 63 36 90
22 63 84 178 132 247 57 80 163 180 163 154z m8675 -26 c-3 -5 -11 -10 -16
-10 -6 0 -7 5 -4 10 3 6 11 10 16 10 6 0 7 -4 4 -10z m-9785 -67 c-1 -57 -2
-59 -46 -91 -25 -19 -48 -31 -52 -27 -8 8 77 175 89 175 5 0 9 -26 9 -57z
m530 48 c0 -5 -9 -37 -19 -72 -11 -35 -25 -94 -31 -131 -13 -74 -30 -91 -30
-30 1 43 15 155 25 193 5 19 2 28 -9 32 -16 6 -213 -54 -299 -92 -143 -63
-252 -176 -271 -283 -5 -29 -12 -38 -26 -38 -16 0 -20 7 -20 38 0 21 9 55 20
77 11 22 20 45 20 53 0 7 20 34 44 60 91 97 353 200 514 201 45 1 82 -3 82 -8z
m2854 -83 c3 -29 5 -192 5 -361 -1 -281 -2 -308 -17 -305 -14 3 -18 21 -23 93
-12 165 -22 642 -14 655 14 23 42 -25 49 -82z m6103 60 c-3 -8 -6 -5 -6 6 -1
11 2 17 5 13 3 -3 4 -12 1 -19z m2853 -78 c-15 -48 -19 -54 -14 -25 8 58 27
122 31 105 2 -8 -6 -44 -17 -80z m-11146 65 c-4 -9 -16 -21 -28 -27 -19 -10
-19 -9 3 16 28 30 33 32 25 11z m-571 -277 c3 -142 2 -258 -3 -258 -13 0 -41
67 -51 123 -22 115 -22 163 1 269 21 98 40 155 46 133 1 -6 5 -126 7 -267z
m-198 176 c0 -57 -5 -92 -19 -122 -22 -49 -33 -53 -42 -14 -11 44 -15 45 -35
12 -31 -51 -44 -34 -43 56 1 82 14 124 39 124 9 0 16 -20 20 -65 4 -36 9 -64
11 -62 2 2 8 34 13 72 9 64 23 89 46 81 6 -1 10 -38 10 -82z m11871 12 c-7
-44 -26 -74 -26 -40 0 23 22 95 28 90 2 -3 1 -25 -2 -50z m-12036 -38 c0 -67
-8 -95 -27 -102 -30 -12 -44 13 -37 68 8 64 19 86 44 86 17 0 20 -7 20 -52z
m3201 25 c11 -12 15 -80 19 -302 3 -157 3 -296 1 -308 -5 -34 -38 -30 -45 5
-13 66 -10 622 3 622 5 0 15 -7 22 -17z m-3293 -50 c-3 -42 -28 -59 -28 -20 0
32 9 57 22 57 5 0 8 -17 6 -37z m11661 -20 c8 -32 31 -364 35 -502 1 -50 -19
-67 -28 -24 -20 95 -43 563 -28 563 6 0 16 -17 21 -37z m-11719 18 c0 -15 -28
-33 -40 -26 -8 5 -8 11 1 21 13 15 39 19 39 5z m3454 -226 c3 -71 7 -184 8
-250 l3 -120 -25 0 c-24 0 -25 3 -31 75 -9 104 -10 387 -2 434 l6 39 18 -24
c13 -18 18 -51 23 -154z m334 52 c3 -117 -7 -148 -28 -91 -20 52 -9 219 14
211 7 -2 12 -46 14 -120z m80 -53 c4 -148 4 -156 -14 -152 -26 5 -36 78 -28
202 7 113 11 133 27 117 7 -7 13 -75 15 -167z m66 -31 c4 -106 3 -193 -2 -193
-27 0 -32 30 -32 205 0 171 4 206 21 188 3 -5 9 -95 13 -200z m74 -36 c3 -207
2 -221 -13 -206 -22 21 -34 125 -35 287 0 126 11 175 33 153 8 -8 13 -83 15
-234z m66 226 c2 -10 7 -121 11 -248 6 -241 1 -282 -30 -241 -12 16 -15 62
-15 247 0 125 3 234 6 243 8 21 21 20 28 -1z m96 -70 c0 -49 3 -179 7 -290 5
-177 4 -203 -9 -203 -8 0 -23 9 -34 21 -17 19 -19 40 -19 272 0 139 3 260 7
270 4 9 17 17 28 17 19 0 20 -6 20 -87z m778 75 c13 -13 15 -284 3 -478 -5
-87 -9 -105 -23 -108 -9 -2 -19 5 -22 16 -10 30 -12 555 -3 570 10 15 29 16
45 0z m165 -41 c4 -25 6 -158 5 -294 -3 -240 -4 -248 -23 -248 -19 0 -20 8
-23 285 -1 157 0 291 3 298 10 27 30 5 38 -41z m177 -7 c10 -106 -4 -518 -17
-532 -38 -37 -51 58 -52 352 -1 164 2 199 15 218 27 39 48 24 54 -38z m240
-77 c0 -76 3 -209 7 -295 5 -136 4 -158 -9 -158 -12 0 -17 37 -27 223 -6 122
-13 242 -16 267 -5 66 4 100 26 100 18 0 19 -10 19 -137z m164 121 c8 -20 8
-522 0 -551 -9 -33 -30 -28 -38 8 -3 17 -6 150 -6 295 0 252 1 264 19 264 10
0 22 -7 25 -16z m237 -5 c7 -14 9 -43 4 -83 -4 -34 -6 -157 -6 -273 1 -178 -1
-213 -13 -213 -7 0 -17 8 -22 18 -13 29 -18 527 -5 551 15 27 27 27 42 0z
m157 8 c11 -13 19 -343 8 -354 -12 -13 -34 7 -40 37 -8 42 -8 258 0 299 7 34
15 38 32 18z m90 -169 c-4 -150 -13 -196 -35 -174 -10 10 -10 315 0 340 6 15
10 16 23 5 14 -11 16 -35 12 -171z m156 166 c3 -9 6 -90 6 -180 0 -140 -2
-166 -16 -171 -32 -12 -39 15 -43 171 -3 155 4 196 33 196 8 0 17 -7 20 -16z
m-2674 2 c0 -3 -4 -8 -10 -11 -5 -3 -10 -1 -10 4 0 6 5 11 10 11 6 0 10 -2 10
-4z m584 -23 c8 -43 2 -560 -6 -569 -5 -4 -10 -5 -13 -2 -9 9 -27 450 -20 508
8 68 14 90 25 90 5 0 11 -12 14 -27z m67 -45 c0 -40 4 -167 9 -283 7 -178 6
-212 -7 -225 -13 -13 -16 -13 -29 5 -13 17 -14 57 -9 265 3 135 8 260 11 278
9 58 24 34 25 -40z m81 36 c12 -44 31 -389 25 -467 -5 -76 -18 -100 -42 -76
-12 11 -17 61 -24 220 -9 190 -8 240 5 327 6 40 25 38 36 -4z m93 -66 c3 -57
5 -188 3 -293 -3 -161 -5 -190 -18 -190 -13 0 -17 41 -25 265 -12 298 -11 320
15 320 16 0 19 -13 25 -102z m69 -20 c3 -68 7 -199 9 -293 2 -164 1 -170 -18
-170 -19 0 -20 8 -23 293 -2 246 0 292 12 292 11 0 15 -26 20 -122z m70 95 c3
-16 9 -145 12 -289 6 -203 4 -263 -5 -269 -7 -4 -17 -3 -22 2 -11 11 -25 494
-15 546 8 44 21 48 30 10z m70 -15 c4 -24 11 -122 17 -218 5 -96 12 -204 15
-240 5 -69 -4 -97 -30 -87 -13 5 -16 23 -16 100 0 52 -3 182 -7 290 -4 133 -3
197 4 197 6 0 14 -19 17 -42z m70 0 c3 -24 8 -86 11 -138 4 -52 8 -122 10
-155 3 -33 7 -87 9 -120 6 -65 -3 -125 -19 -128 -6 -1 -15 66 -22 168 -14 214
-16 415 -4 415 6 0 12 -19 15 -42z m90 20 c10 -49 16 -543 7 -558 -19 -28 -32
41 -48 264 -18 243 -14 316 17 316 12 0 21 -9 24 -22z m180 -30 c7 -65 6 -368
-3 -463 -5 -61 -9 -70 -26 -70 -22 0 -22 -19 -9 388 5 148 9 197 19 197 7 0
15 -20 19 -52z m156 -230 c7 -146 9 -276 5 -288 -9 -28 -29 -20 -36 16 -9 39
-11 483 -3 523 14 69 23 5 34 -251z m174 265 c2 -10 6 -139 8 -287 3 -244 1
-270 -14 -280 -9 -5 -21 -7 -25 -2 -8 8 -5 564 3 578 9 14 22 9 28 -9z m80
-45 c3 -35 10 -150 16 -257 6 -107 13 -198 16 -202 2 -5 2 -19 -2 -33 -7 -29
-42 -45 -55 -25 -10 16 -12 562 -2 572 15 16 22 3 27 -55z m160 20 c11 -86 22
-503 14 -520 -16 -34 -36 -20 -45 30 -10 59 -11 491 -1 515 13 30 27 19 32
-25z m159 10 c10 -57 20 -455 13 -502 -6 -36 -11 -46 -27 -46 -18 0 -19 9 -19
244 0 241 6 336 20 336 4 0 10 -15 13 -32z m70 25 c3 -5 8 -135 12 -290 6
-248 5 -283 -8 -283 -8 0 -17 10 -21 23 -10 37 -7 557 3 557 6 0 12 -3 14 -7z
m177 -19 c6 -14 10 -94 10 -178 0 -132 -3 -157 -20 -191 -11 -22 -20 -60 -21
-85 l-1 -45 -10 45 c-10 46 -3 402 8 453 8 34 22 35 34 1z m234 -145 c4 -94 5
-174 2 -176 -3 -3 -12 -3 -21 0 -12 5 -15 23 -15 85 0 110 12 262 20 262 4 0
10 -77 14 -171z m160 140 c8 -42 8 -314 -1 -322 -3 -4 -12 -2 -20 4 -15 13
-17 125 -6 267 6 85 16 104 27 51z m80 -2 c7 -35 -9 -305 -18 -315 -3 -3 -9
-3 -12 0 -9 10 -18 271 -10 311 9 46 32 48 40 4z m141 -1 c4 -18 3 -96 -2
-172 -7 -120 -10 -139 -25 -142 -16 -3 -18 8 -18 135 0 158 7 213 26 213 7 0
16 -15 19 -34z m75 -145 c0 -99 -4 -182 -8 -185 -4 -2 -14 -1 -22 4 -16 10
-18 94 -5 268 5 69 10 92 21 92 11 0 14 -32 14 -179z m133 164 c4 -8 9 -136
13 -285 6 -244 6 -270 -9 -270 -10 0 -18 11 -21 33 -10 67 -16 322 -10 427 7
103 14 130 27 95z m81 -22 c11 -81 11 -536 0 -540 -21 -7 -26 32 -31 248 -6
213 0 329 17 329 4 0 11 -17 14 -37z m80 20 c3 -10 6 -110 6 -223 1 -113 3
-234 3 -270 2 -52 -1 -65 -13 -65 -11 0 -17 16 -21 60 -9 81 -11 500 -2 508
11 12 21 8 27 -10z m87 -269 c6 -271 3 -312 -24 -285 -12 12 -28 319 -22 421
8 120 14 152 28 147 9 -3 14 -85 18 -283z m69 265 c7 -12 15 -127 20 -277 8
-224 7 -259 -6 -272 -14 -13 -17 -13 -30 4 -11 16 -14 69 -14 277 0 283 4 318
30 268z m91 -79 c15 -216 8 -470 -12 -470 -13 0 -18 69 -25 328 -6 234 -5 244
13 240 15 -3 19 -17 24 -98z m83 78 c3 -13 6 -138 6 -279 0 -213 -2 -259 -15
-269 -8 -6 -19 -9 -25 -5 -11 7 -15 557 -3 568 13 14 31 6 37 -15z m139 -74
c4 -49 6 -177 5 -284 -3 -174 -4 -192 -17 -170 -21 37 -30 555 -10 548 10 -3
16 -32 22 -94z m71 74 c3 -13 6 -141 6 -285 0 -214 -3 -263 -13 -263 -10 0
-16 26 -20 98 -9 123 -9 435 -1 456 9 23 21 20 28 -6z m81 -275 c6 -200 5
-262 -5 -268 -29 -18 -34 16 -34 272 -1 250 6 325 24 277 4 -11 11 -137 15
-281z m70 269 c3 -15 9 -134 14 -262 8 -242 4 -284 -28 -278 -13 3 -17 29 -24
148 -9 158 -5 389 7 408 12 20 24 14 31 -16z m80 -264 c6 -244 5 -278 -8 -278
-12 0 -17 24 -23 128 -11 164 -11 401 -1 426 18 45 25 -15 32 -276z m63 4 c1
-159 -2 -282 -7 -282 -16 0 -21 74 -21 323 0 195 3 248 13 245 9 -4 13 -72 15
-286z m83 119 c3 -312 -3 -401 -27 -401 -11 0 -14 22 -16 103 -3 151 3 429 9
451 5 19 6 19 19 1 10 -14 14 -57 15 -154z m69 -16 c0 -222 -10 -387 -24 -382
-11 4 -10 542 1 561 15 24 23 -36 23 -179z m144 163 c3 -13 7 -140 8 -282 2
-186 0 -260 -8 -263 -22 -7 -26 33 -31 300 -5 242 -4 267 10 267 9 0 19 -10
21 -22z m147 -17 c4 -18 9 -141 10 -274 3 -178 1 -241 -8 -244 -7 -3 -14 12
-17 39 -11 87 -28 469 -22 494 9 34 29 26 37 -15z m73 17 c3 -13 8 -136 11
-274 5 -209 4 -252 -8 -262 -12 -10 -15 0 -21 65 -10 122 -7 493 4 493 5 0 12
-10 14 -22z m153 -250 c3 -140 3 -264 -1 -274 -7 -18 -8 -18 -19 1 -13 23 -23
428 -12 501 14 99 26 19 32 -228z m67 75 c12 -374 13 -367 -5 -371 -13 -2 -17
14 -22 104 -9 136 -9 392 -1 433 13 66 22 14 28 -166z m85 22 c17 -241 15
-360 -6 -381 -16 -15 -17 -15 -24 2 -10 24 -11 538 -2 548 15 15 21 -17 32
-169z m64 168 c9 -14 12 -542 4 -550 -5 -4 -12 -2 -16 5 -10 17 -24 511 -15
535 6 18 20 22 27 10z m156 -188 c15 -248 15 -350 -3 -364 -8 -7 -17 -8 -20
-3 -8 14 -20 527 -12 547 15 40 24 -8 35 -180z m195 138 c3 -32 8 -152 11
-268 6 -204 1 -246 -24 -231 -14 9 -16 556 -2 556 5 0 12 -26 15 -57z m66
-224 c0 -262 -10 -347 -24 -192 -8 98 -8 458 0 466 20 19 24 -29 24 -274z
m-5410 221 c0 -27 -4 -50 -10 -50 -5 0 -10 23 -10 50 0 28 5 50 10 50 6 0 10
-22 10 -50z m2829 -132 c1 -137 -6 -175 -27 -153 -8 8 -4 291 5 320 l6 20 8
-20 c4 -11 8 -86 8 -167z m223 -126 c2 -165 0 -251 -7 -249 -5 2 -10 30 -11
63 0 32 -6 86 -13 118 -10 43 -11 100 -6 210 4 83 10 155 13 161 14 23 21 -66
24 -303z m1427 143 c6 -77 14 -197 18 -267 6 -126 6 -128 -15 -128 -12 0 -22
3 -22 8 -1 4 -5 90 -10 192 -9 183 -3 375 10 348 4 -7 12 -76 19 -153z m222
-117 c3 -173 0 -269 -6 -270 -16 -5 -23 76 -24 273 -1 190 6 287 19 272 4 -4
9 -128 11 -275z m513 240 c12 -90 19 -495 8 -502 -5 -3 -13 1 -16 10 -10 26
-29 459 -22 498 9 48 22 45 30 -6z m74 -158 c11 -197 6 -353 -12 -347 -7 2
-12 88 -14 278 -3 311 11 347 26 69z m196 148 c4 -29 2 -109 -4 -178 -24 -253
-27 -254 -29 -7 -1 195 1 237 13 237 9 0 16 -18 20 -52z m-9174 21 c25 -14
-20 -10 -60 7 l-35 14 40 -6 c22 -3 47 -10 55 -15z m8765 -263 c0 -176 -3
-250 -11 -253 -19 -6 -22 17 -30 205 -5 128 -4 181 4 186 7 4 9 23 5 51 -3 24
-2 56 2 72 6 26 7 27 18 8 8 -14 12 -97 12 -269z m-744 -24 c3 -202 2 -237
-11 -237 -8 0 -18 16 -23 40 -10 44 -2 452 10 481 14 36 20 -41 24 -284z
m-7905 262 c56 -19 78 -34 48 -34 -32 0 -124 30 -124 40 0 14 19 12 76 -6z
m198 -10 c13 -33 7 -64 -13 -64 -10 0 -30 -9 -45 -21 -31 -24 -86 -115 -86
-142 0 -30 -25 -13 -28 19 -8 64 34 131 124 201 35 27 40 28 48 7z m7055 -275
c5 -118 6 -218 1 -223 -25 -26 -30 14 -29 257 1 298 13 283 28 -34z m-7340
246 c44 -14 83 -30 86 -35 7 -11 -78 13 -137 40 -60 26 -43 24 51 -5z m3489
-251 c13 -189 10 -213 -22 -201 -17 7 -23 53 -31 259 -7 158 -2 184 25 151 13
-16 19 -62 28 -209z m5729 164 c-3 -8 -6 -5 -6 6 -1 11 2 17 5 13 3 -3 4 -12
1 -19z m-9152 -18 c3 -5 2 -10 -4 -10 -5 0 -13 5 -16 10 -3 6 -2 10 4 10 5 0
13 -4 16 -10z m246 -21 c7 -13 21 -19 44 -19 29 0 36 -4 41 -26 9 -36 -12 -56
-32 -30 -7 11 -22 20 -31 21 -43 4 -64 17 -58 35 3 10 1 21 -5 25 -15 9 -2 25
16 18 8 -3 19 -14 25 -24z m69 5 c0 -8 -4 -12 -10 -9 -5 3 -10 10 -10 16 0 5
5 9 10 9 6 0 10 -7 10 -16z m11367 -152 c3 -179 -12 -153 -22 40 -6 112 -5
131 6 120 10 -10 15 -51 16 -160z m-8197 106 c10 -25 30 -203 30 -268 0 -33
-3 -40 -19 -40 -22 0 -26 24 -36 218 -3 74 -2 112 5 112 6 0 15 -10 20 -22z
m5701 -40 l-9 -33 -1 36 c-1 20 2 39 6 43 13 12 15 -10 4 -46z m-9211 2 c13
-9 13 -10 0 -10 -8 0 -22 5 -30 10 -13 9 -13 10 0 10 8 0 22 -5 30 -10z m305
-53 c17 -10 18 -12 3 -15 -9 -2 -34 6 -55 18 l-38 21 35 -7 c19 -3 44 -11 55
-17z m366 -43 c-5 -16 -10 -21 -10 -12 -1 18 10 51 15 45 2 -1 -1 -16 -5 -33z
m2937 -19 c15 -46 12 -167 -4 -172 -17 -6 -24 22 -31 125 -5 79 -4 94 8 90 8
-2 20 -22 27 -43z m-3440 -1 c28 -12 52 -27 52 -32 0 -16 -81 -74 -95 -68 -19
7 -62 74 -71 110 -7 28 -6 28 27 21 19 -4 58 -18 87 -31z m6380 27 c22 -13
-75 -20 -184 -13 l-99 7 85 6 c141 9 184 9 198 0z m-516 -24 c-19 -20 -22 -35
-22 -110 l0 -87 -28 0 c-44 0 -52 16 -52 104 0 98 12 116 78 116 l45 0 -21
-23z m175 16 c-20 -2 -52 -2 -70 0 -17 2 0 4 38 4 39 0 53 -2 32 -4z m-5837
-41 c10 -17 23 -39 30 -47 12 -15 18 -230 6 -242 -14 -14 -78 11 -118 46 l-43
39 19 37 c11 20 34 49 52 64 50 45 56 62 33 100 -22 36 -24 44 -7 39 6 -2 19
-18 28 -36z m11413 -24 c17 -55 15 -71 -7 -47 -16 17 -32 99 -19 99 5 0 17
-23 26 -52z m-5186 20 c17 -14 18 -149 1 -166 -9 -9 -81 -12 -262 -12 -138 0
-260 3 -271 6 -19 5 -20 10 -14 85 4 44 10 84 14 87 9 9 348 20 445 15 41 -2
80 -9 87 -15z m-6500 -118 c14 -25 66 -84 116 -132 98 -93 105 -118 13 -43
-58 48 -129 134 -165 200 -45 85 -13 63 36 -25z m3586 73 c3 -5 8 -34 12 -65
6 -50 5 -58 -9 -58 -9 0 -21 12 -26 26 -11 29 -13 87 -3 97 9 9 21 9 26 0z
m5607 -2 c0 -6 -4 -13 -10 -16 -5 -3 -10 1 -10 9 0 9 5 16 10 16 6 0 10 -4 10
-9z m-9265 -51 c33 -65 132 -180 199 -230 28 -22 79 -53 112 -70 62 -31 54
-41 -12 -14 -68 28 -172 103 -217 157 -44 53 -99 143 -112 185 -11 38 3 24 30
-28z m189 9 c-10 -11 -28 -25 -39 -31 -12 -5 -7 3 13 21 37 35 55 42 26 10z
m3546 -38 c15 -29 12 -61 -5 -61 -8 0 -15 4 -15 9 0 5 -3 23 -6 40 -7 35 9 43
26 12z m-3525 -21 c-3 -5 -11 -10 -16 -10 -6 0 -7 5 -4 10 3 6 11 10 16 10 6
0 7 -4 4 -10z m3611 -57 c-7 -7 -26 7 -26 19 0 6 6 6 15 -2 9 -7 13 -15 11
-17z m5358 -52 c7 -10 -77 -21 -106 -13 -15 4 -17 7 -6 13 17 11 105 11 112 0z
m-1124 -131 c43 -33 80 -53 86 -47 3 3 -9 21 -25 40 -17 19 -31 37 -31 40 0 3
33 -19 72 -48 64 -48 98 -66 98 -51 0 3 -15 19 -32 36 l-33 31 29 -7 c25 -6
28 -5 21 15 -8 27 -6 27 75 -9 97 -43 193 -60 332 -60 132 0 194 12 306 60 39
17 73 30 76 30 15 0 3 -23 -21 -46 l-28 -25 35 3 c19 1 41 -1 48 -6 15 -9 16
-48 0 -64 -9 -9 -9 -15 0 -24 8 -8 8 -17 1 -30 -7 -14 -6 -20 6 -24 22 -9 19
-23 -7 -33 -16 -6 -28 -4 -38 5 -19 16 -43 3 -35 -18 4 -11 -3 -19 -24 -26
-28 -10 -31 -9 -31 9 0 12 -5 19 -12 16 -7 -2 -13 -12 -13 -23 0 -32 -65 -46
-230 -51 -129 -4 -163 -2 -238 16 -171 41 -330 125 -427 227 -44 46 -41 49 12
10 43 -30 45 -11 4 34 -59 65 -48 75 24 20z m360 23 c14 -10 59 -25 100 -34
41 -9 64 -17 50 -18 -29 -1 -142 24 -182 40 -15 6 -25 15 -22 20 8 14 27 11
54 -8z m-504 -39 c96 -116 307 -247 479 -296 70 -20 103 -23 263 -23 156 0
182 -2 180 -15 -10 -49 -312 -35 -497 22 -83 26 -210 89 -275 138 -123 91
-241 220 -202 220 8 0 32 -21 52 -46z m-7212 -70 c3 -8 2 -12 -4 -9 -6 3 -10
10 -10 16 0 14 7 11 14 -7z m8446 -158 c0 -7 -10 -16 -22 -20 -28 -7 -49 11
-28 24 22 14 50 12 50 -4z m-132 -53 c-4 -23 -48 -31 -48 -10 0 9 6 18 13 20
25 11 38 7 35 -10z m354 -71 c28 -42 87 -114 131 -159 45 -46 76 -83 70 -83
-38 0 -260 189 -292 248 -10 20 -9 22 10 22 19 0 21 4 15 30 -8 44 6 31 66
-58z m-462 33 c0 -16 -35 -21 -44 -6 -8 12 4 21 26 21 10 0 18 -7 18 -15z"/>
<path d="M12580 3070 c0 -5 5 -10 10 -10 6 0 10 5 10 10 0 6 -4 10 -10 10 -5
0 -10 -4 -10 -10z"/>
<path d="M12645 3000 c-3 -6 1 -13 10 -16 19 -8 30 0 20 15 -8 14 -22 14 -30
1z"/>
<path d="M12595 2970 c-3 -5 -1 -10 4 -10 6 0 11 5 11 10 0 6 -2 10 -4 10 -3
0 -8 -4 -11 -10z"/>
<path d="M12670 2926 c0 -9 5 -16 10 -16 6 0 10 4 10 9 0 6 -4 13 -10 16 -5 3
-10 -1 -10 -9z"/>
<path d="M12725 2749 c-4 -12 -2 -26 4 -32 8 -8 11 -2 11 21 0 37 -6 41 -15
11z"/>
<path d="M4201 3658 c-4 -13 -13 -174 -20 -358 -13 -359 -19 -450 -31 -429 -5
8 -4 109 1 224 15 351 16 557 2 562 -7 3 -17 -6 -21 -19 -5 -13 -14 -185 -21
-382 -6 -198 -16 -366 -21 -375 -10 -18 -5 270 10 566 10 195 8 223 -15 223
-20 0 -24 -45 -36 -440 -6 -195 -13 -404 -16 -463 -4 -73 -2 -112 6 -120 21
-21 32 10 38 109 6 103 21 106 22 4 2 -69 7 -77 53 -78 47 -2 44 -23 58 393 7
182 15 386 20 455 4 68 5 130 3 137 -8 20 -23 15 -32 -9z"/>
<path d="M2666 3654 c-3 -9 -6 -51 -6 -94 0 -43 3 -85 6 -94 8 -20 33 -21 41
-1 5 13 8 13 20 -5 17 -24 39 -26 47 -4 8 20 8 128 0 177 -7 40 -26 48 -44 20
-10 -17 -10 -17 -20 0 -14 21 -36 22 -44 1z"/>
<path d="M2940 3644 c-6 -14 -11 -40 -11 -57 -1 -24 -4 -19 -11 21 -8 41 -13
52 -26 50 -24 -5 -34 -79 -25 -179 6 -64 12 -84 24 -87 8 -1 21 7 27 20 l11
23 0 -23 c1 -39 20 -64 42 -57 14 5 21 0 29 -20 6 -15 16 -25 23 -22 9 3 12
48 12 177 0 177 -8 210 -35 153 l-13 -28 -9 28 c-12 34 -26 35 -38 1z m47
-126 c-2 -13 -4 -5 -4 17 -1 22 1 32 4 23 2 -10 2 -28 0 -40z"/>
<path d="M3080 3644 c-6 -14 -10 -99 -10 -190 0 -139 2 -166 15 -171 9 -3 19
-2 23 2 10 9 16 286 7 341 -7 50 -21 57 -35 18z"/>
<path d="M3870 3635 c-5 -14 -10 -113 -10 -218 0 -106 -5 -315 -12 -465 -9
-218 -9 -275 1 -285 10 -9 15 -8 26 7 8 10 16 24 18 30 3 8 8 8 17 -1 9 -8 19
-9 30 -3 13 7 20 4 28 -15 14 -29 27 -32 37 -7 4 9 9 127 11 262 3 135 8 344
12 465 8 235 7 255 -14 255 -20 0 -22 -22 -29 -290 -9 -394 -17 -570 -27 -564
-11 7 -10 81 4 507 9 250 9 330 0 339 -31 31 -35 -9 -44 -404 -5 -216 -13
-409 -17 -428 -6 -21 -7 106 -3 315 10 487 9 518 -5 522 -7 3 -17 -7 -23 -22z"/>
<path d="M3736 3618 c-3 -18 -7 -235 -10 -482 l-5 -448 29 5 c17 4 30 2 32 -5
2 -6 11 -9 20 -6 14 6 17 52 23 360 11 547 11 601 -1 605 -6 2 -14 -4 -18 -13
-3 -9 -11 -167 -16 -352 -5 -184 -12 -338 -16 -341 -3 -3 -5 149 -4 339 2 190
2 351 1 358 -3 27 -30 11 -35 -20z"/>
<path d="M11762 3739 c2 -7 10 -15 17 -17 8 -3 12 1 9 9 -2 7 -10 15 -17 17
-8 3 -12 -1 -9 -9z"/>
<path d="M11850 3651 c0 -22 25 -39 38 -27 8 8 -10 38 -26 44 -7 2 -12 -6 -12
-17z"/>
<path d="M11910 3552 c0 -11 9 -27 20 -37 19 -17 20 -17 20 -1 0 23 -18 56
-30 56 -6 0 -10 -8 -10 -18z"/>
<path d="M11972 3448 c-8 -8 -9 -15 -1 -25 18 -21 41 -16 37 9 -4 26 -19 33
-36 16z"/>
<path d="M12170 3101 c0 -21 13 -41 26 -41 17 0 17 5 4 31 -11 20 -30 26 -30
10z"/>
<path d="M12376 3061 c-4 -5 -2 -12 3 -15 5 -4 12 -2 15 3 4 5 2 12 -3 15 -5
4 -12 2 -15 -3z"/>
<path d="M12270 2995 c0 -8 5 -15 10 -15 6 0 10 7 10 15 0 8 -4 15 -10 15 -5
0 -10 -7 -10 -15z"/>
<path d="M12218 2988 c-6 -17 1 -38 13 -38 5 0 9 11 9 25 0 26 -14 34 -22 13z"/>
<path d="M12405 2950 c-6 -9 11 -50 20 -50 3 0 5 14 5 30 0 29 -13 40 -25 20z"/>
<path d="M12340 2938 c0 -8 7 -23 15 -34 15 -18 15 -18 13 10 -3 29 -28 50
-28 24z"/>
<path d="M12290 2905 c0 -8 5 -15 10 -15 6 0 10 7 10 15 0 8 -4 15 -10 15 -5
0 -10 -7 -10 -15z"/>
<path d="M9454 3568 c-5 -8 -119 -9 -445 -4 l-437 7 -6 -113 c-13 -263 -23
-963 -14 -973 10 -11 917 -30 927 -19 6 6 18 1068 12 1097 -4 19 -26 23 -37 5z
m-25 -44 l24 -5 -5 -498 c-2 -273 -8 -503 -13 -511 -6 -10 -82 -12 -409 -7
-221 3 -409 8 -418 12 -17 7 -18 28 -17 269 1 327 12 728 21 741 7 11 767 10
817 -1z"/>
<path d="M2083 2429 c-107 -18 -266 -91 -350 -161 -150 -125 -246 -310 -272
-525 -25 -209 51 -438 200 -597 158 -169 335 -248 559 -249 196 -1 331 48 478
173 103 88 162 162 212 265 56 115 71 185 73 333 1 187 -29 284 -136 440 -109
158 -285 281 -452 317 -76 16 -229 18 -312 4z m319 -33 c112 -28 187 -65 283
-138 91 -69 152 -151 198 -268 95 -236 90 -440 -14 -650 -46 -92 -64 -117
-148 -200 -142 -141 -261 -194 -466 -207 -119 -7 -220 11 -320 56 -36 16 -65
32 -65 34 0 3 33 -8 73 -23 208 -80 472 -59 637 51 96 65 200 176 247 265 50
95 103 271 103 343 0 208 -79 393 -235 546 -202 199 -524 245 -810 116 -36
-17 -65 -28 -65 -25 0 7 134 71 188 88 127 42 260 46 394 12z m-24 -63 c34 -8
65 -19 67 -23 3 -5 -9 -5 -27 1 -66 18 -76 14 -93 -43 -9 -29 -19 -82 -22
-118 -5 -63 -4 -66 26 -99 26 -28 36 -32 59 -26 37 9 52 24 113 113 54 78 57
84 44 116 -7 17 -6 17 21 3 16 -8 43 -29 60 -46 l32 -31 -69 -69 c-103 -103
-119 -162 -55 -204 47 -31 117 -18 211 38 56 34 60 35 72 18 20 -27 53 -145
53 -189 0 -29 -3 -35 -10 -24 -5 8 -10 33 -10 56 0 28 -6 47 -20 59 -19 17
-22 17 -85 0 -83 -22 -127 -51 -139 -92 -14 -50 11 -79 74 -88 46 -6 129 -1
173 11 15 5 17 -2 17 -49 0 -32 -5 -59 -12 -65 -9 -6 -48 -5 -122 5 -129 18
-149 12 -167 -45 -10 -34 -8 -45 8 -84 21 -45 40 -64 127 -121 27 -18 51 -37
53 -43 1 -5 -10 -25 -26 -44 l-29 -34 -69 65 c-76 71 -119 95 -158 85 -28 -7
-65 -59 -65 -91 0 -11 23 -62 50 -114 28 -51 50 -95 50 -97 0 -8 -61 -34 -79
-34 -20 0 -31 19 -85 143 -41 95 -61 117 -105 117 -20 0 -44 -6 -53 -12 -16
-13 -53 -145 -65 -233 -5 -38 -9 -45 -29 -45 -63 0 -64 10 -29 180 28 131 25
153 -22 171 -51 19 -97 -5 -160 -83 -109 -134 -95 -123 -122 -101 -30 25 -24
37 75 146 66 72 74 85 69 112 -7 40 -32 57 -70 49 -34 -7 -131 -46 -188 -75
-21 -11 -42 -17 -47 -14 -22 14 -51 143 -56 254 -8 143 5 203 76 347 58 117
124 190 238 265 77 51 131 72 227 88 124 22 188 21 293 -6z m410 -809 c17 -12
21 -20 16 -42 -9 -35 -41 -99 -54 -107 -19 -12 -70 16 -70 37 0 17 15 92 26
127 5 15 46 8 82 -15z m-1063 -242 c-6 -7 -35 18 -35 31 0 5 9 2 20 -8 11 -10
18 -20 15 -23z m882 -24 c38 -43 37 -48 -8 -94 -24 -24 -51 -44 -61 -44 -18 0
-38 35 -38 66 0 14 67 94 79 94 4 0 17 -10 28 -22z m-662 -86 c58 -24 71 -33
73 -54 5 -42 -19 -52 -70 -28 -70 33 -102 63 -94 88 4 12 10 22 14 22 4 0 39
-13 77 -28z m403 -101 c-4 -19 -73 -39 -140 -40 l-48 -1 0 35 c0 41 4 43 91
54 57 7 66 5 82 -12 10 -11 16 -27 15 -36z m-488 -37 c0 -2 -9 0 -20 6 -11 6
-20 13 -20 16 0 2 9 0 20 -6 11 -6 20 -13 20 -16z m473 -31 c-7 -2 -21 -2 -30
0 -10 3 -4 5 12 5 17 0 24 -2 18 -5z"/>
<path d="M2060 2317 c-35 -18 -37 -61 -5 -148 45 -125 69 -150 129 -135 32 8
43 45 51 167 9 120 2 129 -88 129 -34 0 -73 -6 -87 -13z"/>
<path d="M1845 2216 c-94 -63 -93 -60 -20 -152 61 -79 116 -124 148 -124 9 0
27 16 41 36 21 31 23 40 14 72 -18 68 -102 202 -126 202 -4 0 -30 -15 -57 -34z"/>
<path d="M1641 2003 c-26 -32 -55 -126 -47 -150 4 -13 33 -24 108 -42 57 -13
118 -28 137 -34 30 -9 37 -7 53 13 22 27 22 40 4 83 -10 25 -38 48 -112 95
-54 34 -104 62 -110 62 -7 0 -22 -12 -33 -27z"/>
<path d="M2130 1953 c-66 -24 -151 -113 -173 -182 -28 -87 -23 -167 15 -240
18 -35 47 -76 65 -92 61 -53 201 -77 275 -46 49 20 113 81 146 136 24 41 27
56 27 141 0 52 -5 106 -9 119 -7 17 -6 22 2 17 7 -4 19 -33 29 -64 18 -63 31
-48 13 16 -23 89 -106 176 -191 201 -51 15 -146 12 -199 -6z m188 -90 c-4 -22
-22 -20 -26 1 -2 10 3 16 13 16 10 0 15 -7 13 -17z m-186 -45 c-17 -17 -47 9
-30 29 10 12 13 12 27 -1 11 -12 12 -19 3 -28z m221 -25 c-7 -2 -19 -2 -25 0
-7 3 -2 5 12 5 14 0 19 -2 13 -5z m-273 -63 c0 -39 -26 -80 -50 -80 -5 0 -14
9 -20 20 -14 27 4 60 32 60 17 0 19 3 10 12 -18 18 -15 28 8 28 17 0 20 -7 20
-40z m170 -17 l0 -24 37 26 c21 14 48 25 60 25 25 0 53 -34 53 -66 0 -33 -20
-82 -36 -88 -15 -6 -64 13 -96 36 -22 16 -33 5 -19 -20 14 -27 6 -32 -36 -19
-39 12 -58 36 -67 86 -5 28 -1 37 25 62 26 24 33 27 55 17 15 -7 24 -19 24
-35z"/>
<path d="M1577 1714 c-11 -11 -8 -139 3 -168 14 -38 50 -52 86 -33 16 8 63 22
104 32 98 23 106 30 85 83 -19 46 -34 53 -150 71 -38 7 -81 14 -95 17 -14 2
-29 2 -33 -2z"/>
<path d="M10800 2381 c0 -4 33 -11 73 -14 79 -6 223 -51 296 -94 73 -42 186
-140 232 -200 43 -58 82 -143 94 -206 11 -57 0 -45 -30 33 -75 195 -234 346
-440 416 -70 24 -96 27 -210 28 -115 0 -139 -3 -208 -26 -164 -55 -311 -172
-391 -311 -41 -71 -61 -86 -28 -20 68 132 218 269 356 326 66 26 75 33 52 35
-18 2 -62 -13 -124 -44 -167 -82 -299 -237 -359 -419 -35 -107 -43 -287 -18
-401 20 -91 88 -228 149 -303 133 -162 342 -261 550 -261 135 0 138 16 4 23
-250 12 -470 140 -589 343 -48 81 -89 181 -88 212 0 9 12 -17 27 -58 55 -150
143 -268 262 -349 71 -49 103 -65 192 -99 66 -25 85 -27 208 -27 115 0 145 4
205 23 114 39 184 82 279 172 76 73 95 98 133 176 42 88 82 236 83 309 0 23 3
27 10 15 13 -19 4 -102 -22 -210 -25 -103 -97 -219 -190 -309 -43 -41 -57 -61
-48 -66 22 -13 155 136 194 218 81 172 96 229 96 382 0 117 -12 180 -53 267
-110 242 -325 407 -567 437 -102 13 -130 14 -130 2z m139 -76 c108 -21 156
-39 220 -83 50 -34 52 -37 30 -42 -18 -4 -35 -27 -73 -102 -44 -88 -48 -99
-39 -135 l9 -38 51 1 c50 2 54 4 117 67 36 36 66 73 66 81 0 51 57 -20 108
-135 36 -83 37 -86 40 -236 4 -143 2 -158 -22 -230 -30 -90 -69 -160 -121
-220 -50 -58 -65 -55 -20 4 20 27 35 56 33 68 -3 20 -127 99 -176 112 -38 9
-64 -24 -64 -82 0 -39 8 -58 46 -116 33 -50 52 -69 68 -69 21 0 21 0 2 -21
-27 -30 -182 -111 -168 -88 3 6 22 17 40 25 25 11 34 20 34 39 0 13 -4 27 -10
30 -5 3 -28 37 -51 75 -41 69 -42 70 -83 70 -68 0 -70 -5 -67 -122 3 -116 10
-138 49 -139 63 -2 -55 -27 -133 -28 -226 -2 -444 112 -564 296 -70 105 -102
207 -108 343 -4 93 -2 115 22 195 39 132 87 215 173 297 84 80 143 120 220
148 61 23 81 20 33 -5 -17 -8 -31 -23 -31 -32 0 -21 86 -181 113 -210 23 -25
75 -31 95 -11 21 21 16 115 -13 255 -3 12 -15 25 -26 28 -17 6 -19 9 -8 16 22
14 118 11 208 -6z m-804 -504 c-8 -40 -15 -114 -16 -164 0 -78 -2 -88 -11 -62
-13 34 3 216 23 273 18 53 21 31 4 -47z m1123 -471 c39 -24 41 -51 6 -97 -31
-41 -64 -43 -93 -7 -12 15 -21 31 -21 36 0 12 59 88 68 88 4 0 22 -9 40 -20z
m-204 -173 c25 -34 16 -54 -39 -81 -49 -24 -69 -13 -73 41 -3 38 -1 41 35 55
47 20 52 19 77 -15z"/>
<path d="M10855 2280 c-14 -22 -18 -187 -6 -223 13 -38 51 -67 89 -67 49 0
156 187 134 235 -19 41 -198 86 -217 55z"/>
<path d="M10429 2175 c-30 -16 -79 -77 -79 -97 1 -32 168 -188 202 -188 9 0
29 15 43 34 l26 34 -25 61 c-13 33 -42 82 -63 108 -56 70 -60 72 -104 48z"/>
<path d="M10692 1919 c-34 -17 -77 -48 -95 -69 -71 -83 -91 -242 -41 -329 53
-91 116 -137 221 -159 136 -29 296 72 334 211 14 52 6 161 -16 213 -24 58 -52
82 -139 125 -106 52 -174 54 -264 8z m288 -80 c0 -16 -31 -22 -43 -10 -9 9 -9
14 2 20 16 10 41 4 41 -10z m-220 1 c0 -5 -4 -10 -10 -10 -5 0 -10 5 -10 10 0
6 5 10 10 10 6 0 10 -4 10 -10z m-50 -48 c0 -11 -9 -27 -20 -37 -18 -16 -20
-16 -26 -1 -4 10 1 25 11 36 23 25 35 25 35 2z m180 -78 c0 -15 -8 -32 -17
-39 -13 -10 -14 -16 -7 -26 6 -8 14 -31 17 -51 5 -33 3 -38 -15 -38 -40 0 -90
32 -105 68 -20 48 -6 76 49 95 65 23 78 21 78 -9z m176 -25 c20 -16 14 -78
-11 -115 -14 -22 -22 -25 -68 -22 -46 3 -54 7 -74 37 -13 19 -23 46 -23 60 0
22 7 30 43 44 46 18 109 16 133 -4z m-418 -6 c5 -17 -26 -29 -40 -15 -6 6 -7
15 -3 22 9 14 37 9 43 -7z m8 -88 c-1 -20 -3 -22 -15 -11 -7 8 -10 19 -7 25
12 19 24 12 22 -14z m-51 -62 c26 -39 31 -53 18 -53 -11 0 -53 63 -53 78 0 20
8 14 35 -25z m105 -36 c0 -21 -12 -28 -27 -16 -19 16 -16 29 7 29 11 0 20 -6
20 -13z m170 -22 c13 -16 7 -45 -9 -45 -5 0 -17 7 -26 16 -12 12 -13 19 -4 30
15 18 24 18 39 -1z"/>
<path d="M10262 1926 c-34 -18 -50 -47 -57 -102 -10 -73 8 -86 138 -95 110 -7
140 -2 157 31 23 43 9 59 -105 120 -97 52 -113 57 -133 46z"/>
<path d="M11253 1889 c-80 -55 -96 -84 -72 -128 13 -22 23 -26 69 -29 70 -5
157 14 169 36 12 24 -11 127 -34 152 -27 30 -52 24 -132 -31z"/>
<path d="M11204 1635 c-20 -31 -37 -103 -30 -130 7 -26 59 -55 150 -85 57 -19
70 -20 77 -9 17 27 30 85 36 160 5 74 5 76 -18 82 -13 4 -63 7 -111 7 -82 0
-89 -2 -104 -25z m196 -35 c7 -13 8 -39 4 -68 -12 -83 -26 -94 -93 -71 l-32
11 6 57 c11 90 11 91 60 91 34 0 47 -5 55 -20z"/>
<path d="M10212 1618 c-7 -7 -12 -37 -12 -67 0 -59 28 -124 62 -145 22 -13 79
1 170 44 66 31 67 32 74 77 4 26 3 58 -2 72 l-9 26 -135 3 c-97 2 -139 -1
-148 -10z"/>
<path d="M10477 1367 c-148 -83 -162 -121 -74 -204 58 -55 119 -82 141 -64 22
18 88 181 89 219 1 26 -6 40 -27 58 -36 32 -60 30 -129 -9z m-2 -139 c36 -28
65 -55 65 -59 0 -19 -39 -29 -67 -18 -36 13 -93 68 -93 89 0 14 18 40 27 40 2
0 33 -23 68 -52z"/>
<path d="M10717 1282 c-29 -32 -89 -170 -85 -198 3 -24 10 -29 68 -46 73 -20
127 -23 132 -7 8 24 -18 237 -31 253 -18 21 -64 21 -84 -2z m71 -141 c8 -5 12
-22 10 -42 -4 -40 -23 -46 -87 -29 -33 9 -41 15 -41 33 0 13 5 28 12 35 14 14
86 16 106 3z"/>
<path d="M10651 2369 c-13 -5 -22 -11 -19 -14 7 -8 78 7 78 16 0 11 -28 10
-59 -2z"/>
<path d="M10758 2373 c7 -3 16 -2 19 1 4 3 -2 6 -13 5 -11 0 -14 -3 -6 -6z"/>
<path d="M11140 1025 c-47 -24 -110 -51 -140 -61 -56 -17 -86 -34 -59 -34 65
1 217 60 278 108 46 36 5 29 -79 -13z"/>
<path d="M8837 1354 c-10 -11 3 -24 24 -24 23 0 25 15 3 24 -19 7 -19 7 -27 0z"/>
<path d="M9430 1330 c0 -5 6 -10 14 -10 8 0 18 5 21 10 3 6 -3 10 -14 10 -12
0 -21 -4 -21 -10z"/>
<path d="M8710 1290 c0 -5 5 -10 11 -10 5 0 7 5 4 10 -3 6 -8 10 -11 10 -2 0
-4 -4 -4 -10z"/>
<path d="M8833 1283 c9 -9 19 -14 23 -11 10 10 -6 28 -24 28 -15 0 -15 -1 1
-17z"/>
<path d="M8639 1270 c12 -11 27 -17 33 -14 14 9 -12 34 -36 34 -21 -1 -21 -1
3 -20z"/>
<path d="M9485 1280 c3 -5 10 -10 16 -10 5 0 9 5 9 10 0 6 -7 10 -16 10 -8 0
-12 -4 -9 -10z"/>
<path d="M9495 1240 c-3 -5 1 -10 10 -10 9 0 13 5 10 10 -3 6 -8 10 -10 10 -2
0 -7 -4 -10 -10z"/>
</g>
</svg>
